<svg width="25" height="28" viewBox="0 0 25 28" fill="none" xmlns="http://www.w3.org/2000/svg">
<path d="M18.3511 7.57798V6.0367C18.3511 5.89541 18.2314 5.77982 18.0851 5.77982H5.31915C5.17287 5.77982 5.05319 5.89541 5.05319 6.0367V7.57798C5.05319 7.71927 5.17287 7.83486 5.31915 7.83486H18.0851C18.2314 7.83486 18.3511 7.71927 18.3511 7.57798ZM5.31915 10.4037C5.17287 10.4037 5.05319 10.5193 5.05319 10.6606V12.2018C5.05319 12.3431 5.17287 12.4587 5.31915 12.4587H11.4362C11.5824 12.4587 11.7021 12.3431 11.7021 12.2018V10.6606C11.7021 10.5193 11.5824 10.4037 11.4362 10.4037H5.31915ZM17.8191 14.1284C13.8531 14.1284 10.6383 17.2335 10.6383 21.0642C10.6383 24.895 13.8531 28 17.8191 28C21.7852 28 25 24.895 25 21.0642C25 17.2335 21.7852 14.1284 17.8191 14.1284ZM21.393 24.5161C20.4388 25.4376 19.1689 25.945 17.8191 25.945C16.4694 25.945 15.1995 25.4376 14.2453 24.5161C13.2912 23.5945 12.766 22.3679 12.766 21.0642C12.766 19.7606 13.2912 18.5339 14.2453 17.6124C15.1995 16.6908 16.4694 16.1835 17.8191 16.1835C19.1689 16.1835 20.4388 16.6908 21.393 17.6124C22.3471 18.5339 22.8723 19.7606 22.8723 21.0642C22.8723 22.3679 22.3471 23.5945 21.393 24.5161ZM20.7779 18.6239H19.3052C19.2188 18.6239 19.139 18.6624 19.0891 18.7298L16.9781 21.5491L16.2101 20.5248C16.1855 20.4917 16.153 20.4648 16.1154 20.4463C16.0778 20.4279 16.0362 20.4185 15.994 20.4188H14.5279C14.3118 20.4188 14.1855 20.6564 14.3118 20.8266L16.7653 24.105C16.8717 24.2463 17.0878 24.2463 17.1941 24.105L20.9907 19.0317C21.1203 18.8615 20.994 18.6239 20.7779 18.6239ZM10.1064 24.9174H2.39362V2.31193H21.0106V13.3578C21.0106 13.4991 21.1303 13.6147 21.2766 13.6147H23.1383C23.2846 13.6147 23.4043 13.4991 23.4043 13.3578V1.02752C23.4043 0.459174 22.9289 0 22.3404 0H1.06383C0.475399 0 0 0.459174 0 1.02752V26.2018C0 26.7702 0.475399 27.2294 1.06383 27.2294H10.1064C10.2527 27.2294 10.3723 27.1138 10.3723 26.9725V25.1743C10.3723 25.033 10.2527 24.9174 10.1064 24.9174Z" fill="white"/>
</svg>
