<svg width="29" height="29" viewBox="0 0 29 29" fill="none" xmlns="http://www.w3.org/2000/svg">
<path fill-rule="evenodd" clip-rule="evenodd" d="M24.167 8.05558C24.167 7.41464 24.4216 6.79995 24.8748 6.34674C25.328 5.89353 25.9427 5.63892 26.5837 5.63892C27.2246 5.63892 27.8393 5.89353 28.2925 6.34674C28.7457 6.79995 29.0003 7.41464 29.0003 8.05558V24.4108L26.5837 28.0358L24.167 24.4108V8.05558ZM26.5837 7.25003C26.37 7.25003 26.1651 7.3349 26.014 7.48597C25.863 7.63704 25.7781 7.84194 25.7781 8.05558V23.9226L26.5837 25.1309L27.3892 23.9226V8.05558C27.3892 7.84194 27.3043 7.63704 27.1533 7.48597C27.0022 7.3349 26.7973 7.25003 26.5837 7.25003Z" fill="white"/>
<path fill-rule="evenodd" clip-rule="evenodd" d="M28.1949 11.2777H24.9727V9.66663H28.1949V11.2777Z" fill="white"/>
<path fill-rule="evenodd" clip-rule="evenodd" d="M3.22222 1.61111C2.79493 1.61111 2.38514 1.78085 2.08299 2.08299C1.78085 2.38514 1.61111 2.79493 1.61111 3.22222V25.7778C1.61111 26.2051 1.78085 26.6149 2.08299 26.917C2.38514 27.2191 2.79493 27.3889 3.22222 27.3889H19.3333C19.7606 27.3889 20.1704 27.2191 20.4726 26.917C20.7747 26.6149 20.9444 26.2051 20.9444 25.7778V3.22222C20.9444 2.79493 20.7747 2.38514 20.4726 2.08299C20.1704 1.78085 19.7606 1.61111 19.3333 1.61111H3.22222ZM0 3.22222C0 2.36764 0.339483 1.54805 0.943767 0.943767C1.54805 0.339483 2.36764 0 3.22222 0H19.3333C20.1879 0 21.0075 0.339483 21.6118 0.943767C22.2161 1.54805 22.5556 2.36764 22.5556 3.22222V25.7778C22.5556 26.6324 22.2161 27.452 21.6118 28.0562C21.0075 28.6605 20.1879 29 19.3333 29H3.22222C2.36764 29 1.54805 28.6605 0.943767 28.0562C0.339483 27.452 0 26.6324 0 25.7778V3.22222Z" fill="white"/>
<path fill-rule="evenodd" clip-rule="evenodd" d="M11.2773 7.25001C11.2773 7.03637 11.3622 6.83147 11.5133 6.6804C11.6644 6.52933 11.8693 6.44446 12.0829 6.44446H18.5273C18.741 6.44446 18.9459 6.52933 19.097 6.6804C19.248 6.83147 19.3329 7.03637 19.3329 7.25001C19.3329 7.46366 19.248 7.66856 19.097 7.81963C18.9459 7.9707 18.741 8.05557 18.5273 8.05557H12.0829C11.8693 8.05557 11.6644 7.9707 11.5133 7.81963C11.3622 7.66856 11.2773 7.46366 11.2773 7.25001Z" fill="white"/>
<path fill-rule="evenodd" clip-rule="evenodd" d="M11.2773 10.4722C11.2773 10.2585 11.3622 10.0536 11.5133 9.90257C11.6644 9.7515 11.8693 9.66663 12.0829 9.66663H18.5273C18.741 9.66663 18.9459 9.7515 19.097 9.90257C19.248 10.0536 19.3329 10.2585 19.3329 10.4722C19.3329 10.6858 19.248 10.8907 19.097 11.0418C18.9459 11.1929 18.741 11.2777 18.5273 11.2777H12.0829C11.8693 11.2777 11.6644 11.1929 11.5133 11.0418C11.3622 10.8907 11.2773 10.6858 11.2773 10.4722Z" fill="white"/>
<path fill-rule="evenodd" clip-rule="evenodd" d="M11.2773 17.7222C11.2773 17.5085 11.3622 17.3036 11.5133 17.1526C11.6644 17.0015 11.8693 16.9166 12.0829 16.9166H18.5273C18.741 16.9166 18.9459 17.0015 19.097 17.1526C19.248 17.3036 19.3329 17.5085 19.3329 17.7222C19.3329 17.9358 19.248 18.1407 19.097 18.2918C18.9459 18.4429 18.741 18.5277 18.5273 18.5277H12.0829C11.8693 18.5277 11.6644 18.4429 11.5133 18.2918C11.3622 18.1407 11.2773 17.9358 11.2773 17.7222Z" fill="white"/>
<path fill-rule="evenodd" clip-rule="evenodd" d="M11.2773 20.9445C11.2773 20.7308 11.3622 20.5259 11.5133 20.3749C11.6644 20.2238 11.8693 20.1389 12.0829 20.1389H18.5273C18.741 20.1389 18.9459 20.2238 19.097 20.3749C19.248 20.5259 19.3329 20.7308 19.3329 20.9445C19.3329 21.1581 19.248 21.363 19.097 21.5141C18.9459 21.6652 18.741 21.75 18.5273 21.75H12.0829C11.8693 21.75 11.6644 21.6652 11.5133 21.5141C11.3622 21.363 11.2773 21.1581 11.2773 20.9445Z" fill="white"/>
<path fill-rule="evenodd" clip-rule="evenodd" d="M4.83377 17.7222V20.1389H7.25043V17.7222H4.83377ZM4.02821 16.1111H8.05599C8.26964 16.1111 8.47453 16.196 8.6256 16.347C8.77667 16.4981 8.86155 16.703 8.86155 16.9166V20.9444C8.86155 21.1581 8.77667 21.363 8.6256 21.514C8.47453 21.6651 8.26964 21.75 8.05599 21.75H4.02821C3.81457 21.75 3.60967 21.6651 3.4586 21.514C3.30753 21.363 3.22266 21.1581 3.22266 20.9444V16.9166C3.22266 16.703 3.30753 16.4981 3.4586 16.347C3.60967 16.196 3.81457 16.1111 4.02821 16.1111Z" fill="white"/>
<path fill-rule="evenodd" clip-rule="evenodd" d="M9.43121 6.68044C9.58223 6.8315 9.66706 7.03636 9.66706 7.24996C9.66706 7.46357 9.58223 7.66843 9.43121 7.81949L5.63946 11.6112L3.45882 9.4306C3.38188 9.35629 3.32051 9.2674 3.27829 9.16912C3.23607 9.07084 3.21385 8.96514 3.21292 8.85818C3.21199 8.75121 3.23237 8.64514 3.27288 8.54614C3.31338 8.44714 3.3732 8.3572 3.44883 8.28156C3.52447 8.20593 3.61441 8.14611 3.71341 8.10561C3.81241 8.0651 3.91848 8.04472 4.02545 8.04565C4.13241 8.04658 4.23811 8.0688 4.33639 8.11102C4.43467 8.15324 4.52356 8.21461 4.59787 8.29155L5.63946 9.33313L8.29215 6.68044C8.44321 6.52942 8.64807 6.44458 8.86168 6.44458C9.07528 6.44458 9.28014 6.52942 9.43121 6.68044Z" fill="white"/>
</svg>
