<svg width="33" height="26" viewBox="0 0 33 26" fill="none" xmlns="http://www.w3.org/2000/svg">
<path d="M0 26H32.5L29.803 4.41079C29.783 2.59837 29.829 1.59467 29.829 1.59467C29.4087 1.72413 28.7831 1.77396 28.034 1.77396C27.9072 1.77396 27.7745 1.77179 27.6396 1.76908C27.6369 0.637542 27.6607 0 27.6607 0C27.0102 0.855833 25.6214 1.07358 24.0381 1.07358C22.3941 1.07358 20.5411 0.839042 19.0851 0.839042C16.8388 0.839042 16.3589 2.34217 16.2549 2.98838C16.1509 2.33946 15.6688 0.842833 13.4274 0.842833C11.9714 0.842833 10.1194 1.07738 8.476 1.07738C6.89108 1.07738 5.50225 0.859625 4.85171 0.0027084C4.85171 0.0027084 4.87554 0.639708 4.87229 1.76854C4.7385 1.77071 4.60525 1.77342 4.47796 1.77342C3.72775 1.77342 3.10375 1.72358 2.68342 1.59412C2.68342 1.59412 2.72729 2.55342 2.7105 4.29488L0 26ZM28.034 2.78254C28.3075 2.78254 28.5583 2.77604 28.7885 2.76358C28.7603 5.70646 28.8855 13.7459 30.6784 24.1486C30.3462 24.0953 30.0152 24.0352 29.6855 23.9682C29.8978 23.8799 30.0663 23.7597 30.18 23.5977C28.125 14.8926 27.7117 6.84504 27.6499 2.77713C27.7799 2.77983 27.9094 2.78254 28.034 2.78254ZM19.2963 2.22679C20.3965 2.22679 21.8687 2.35625 23.426 2.49329C24.5137 2.58917 25.6246 2.68558 26.6381 2.73975C26.7004 6.74538 27.0963 14.605 29.0252 23.1108C28.8795 23.1351 28.6775 23.1541 28.399 23.1541C27.3699 23.1541 25.8955 22.8925 24.4698 22.639C22.8643 22.354 21.2046 22.0588 19.8505 22.0588C18.8007 22.0588 17.9741 22.256 17.3225 22.5577C17.2976 22.568 17.2689 22.5756 17.2456 22.5864L17.2418 3.62213C17.2607 3.35454 17.4492 2.22679 19.2963 2.22679ZM5.876 2.73975C6.88946 2.68558 7.99933 2.58917 9.08646 2.49329C10.6443 2.35679 12.1165 2.22679 13.2177 2.22679C15.0047 2.22679 15.2436 3.27112 15.2712 3.64433L15.2663 22.5859C15.2235 22.5669 15.1726 22.5518 15.1277 22.5339C14.4842 22.2473 13.6792 22.0599 12.6604 22.0599C11.3062 22.0599 9.64654 22.3557 8.04158 22.6406C6.61483 22.8946 5.14096 23.1562 4.11179 23.1562C3.83337 23.1562 3.63079 23.1373 3.48725 23.1135C5.41667 14.6066 5.81262 6.74429 5.876 2.73975ZM3.72504 2.76358C3.95579 2.77604 4.20604 2.78254 4.47958 2.78254C4.60417 2.78254 4.73417 2.77983 4.86417 2.77767C4.80187 6.8445 4.38804 14.8942 2.33187 23.601C2.44508 23.7618 2.61192 23.8821 2.82154 23.9698C2.48517 24.037 2.15421 24.0982 1.83246 24.1491C3.627 13.7459 3.75267 5.70646 3.72504 2.76358Z" fill="white"/>
<path d="M12.5652 3.20454C13.9551 3.20454 14.4134 3.51979 14.4182 3.52304L14.5472 3.35404L14.6788 3.18883C14.6252 3.14874 14.1106 2.79016 12.5798 2.79016C11.4277 2.79016 10.0053 3.08212 8.7432 3.33887C7.82345 3.52737 7.02666 3.69041 6.57058 3.69041L6.5332 4.11183C7.03533 4.11183 7.85541 3.94337 8.80279 3.74837C10.0486 3.49324 11.4537 3.20454 12.5652 3.20454Z" fill="white"/>
<path d="M12.4926 5.32783C13.9096 5.32783 14.3782 5.65554 14.3825 5.65879L14.5136 5.48437L14.6479 5.31212C14.5932 5.26824 14.0689 4.89612 12.5078 4.89612C11.3329 4.89612 9.88234 5.19837 8.59534 5.46758C7.65664 5.66203 6.84414 5.83212 6.37939 5.83212L6.33984 6.27141C6.85226 6.27141 7.68805 6.09591 8.65493 5.89441C9.92459 5.62845 11.3595 5.32783 12.4926 5.32783Z" fill="white"/>
<path d="M12.4172 7.53791C13.8629 7.53791 14.3396 7.87753 14.345 7.88187L14.4788 7.69987L14.6164 7.52166C14.5601 7.47616 14.0244 7.08887 12.4324 7.08887C11.2342 7.08887 9.7544 7.40358 8.44086 7.68308C7.48265 7.8862 6.65282 8.06333 6.1794 8.06333L6.1377 8.51941C6.66095 8.51941 7.51461 8.33741 8.50045 8.12724C9.79665 7.84937 11.2602 7.53791 12.4172 7.53791Z" fill="white"/>
<path d="M12.3373 9.83775C13.8122 9.83775 14.2992 10.1931 14.3052 10.1963L14.4417 10.0073L14.5814 9.81988C14.5245 9.77383 13.978 9.36975 12.3541 9.36975C11.131 9.36975 9.61973 9.69746 8.27911 9.98942C7.30086 10.2012 6.45478 10.3843 5.96998 10.3843L5.92773 10.861C6.46073 10.861 7.3339 10.6708 8.34032 10.4515C9.66415 10.1628 11.157 9.83775 12.3373 9.83775Z" fill="white"/>
<path d="M12.2556 12.2346C13.7614 12.2346 14.2592 12.6051 14.2635 12.6089L14.4044 12.4112L14.5474 12.2162C14.4883 12.168 13.9309 11.7477 12.2724 11.7477C11.0244 11.7477 9.48115 12.0889 8.11182 12.3923C7.1119 12.6127 6.24794 12.805 5.75286 12.805L5.70898 13.3017C6.25336 13.3017 7.14386 13.1035 8.17303 12.8738C9.52448 12.5732 11.0487 12.2346 12.2556 12.2346Z" fill="white"/>
<path d="M12.1701 14.7344C13.7084 14.7344 14.2165 15.1201 14.2213 15.1244L14.3643 14.9186L14.5111 14.7154C14.4516 14.6651 13.8823 14.2263 12.1885 14.2263C10.9134 14.2263 9.33605 14.5827 7.93747 14.8991C6.91534 15.1298 6.03189 15.3297 5.52651 15.3297L5.48047 15.847C6.0373 15.847 6.94839 15.6406 7.99922 15.4023C9.38047 15.0876 10.9388 14.7344 12.1701 14.7344Z" fill="white"/>
<path d="M12.0808 17.3443C13.6528 17.3443 14.1711 17.7483 14.1765 17.7527L14.3228 17.5371L14.4718 17.3248C14.4111 17.2717 13.8293 16.814 12.0982 16.814C10.7955 16.814 9.184 17.1866 7.75346 17.516C6.70967 17.757 5.80563 17.9666 5.28996 17.9666L5.24121 18.5083C5.8105 18.5083 6.74163 18.2916 7.81629 18.0419C9.22896 17.7137 10.822 17.3443 12.0808 17.3443Z" fill="white"/>
<path d="M11.9862 20.0714C13.5949 20.0714 14.1241 20.4923 14.1296 20.4967L14.2791 20.2713L14.4324 20.0503C14.3695 19.9951 13.7759 19.5162 12.0062 19.5162C10.6737 19.5162 9.02544 19.9052 7.5624 20.2507C6.49477 20.5032 5.57015 20.7198 5.04256 20.7198L4.99219 21.2864C5.5734 21.2864 6.52565 21.0611 7.62523 20.8005C9.07094 20.4577 10.7003 20.0714 11.9862 20.0714Z" fill="white"/>
<path d="M18.0946 3.52304C18.099 3.51979 18.5572 3.20454 19.9471 3.20454C21.0597 3.20454 22.4643 3.49324 23.7095 3.74837C24.6569 3.94337 25.477 4.11183 25.9786 4.11183L25.9412 3.69041C25.4851 3.69041 24.6883 3.52737 23.7686 3.33887C22.5076 3.08212 21.0846 2.79016 19.9325 2.79016C18.4028 2.79016 17.8872 3.14874 17.833 3.18883L17.9652 3.35404L18.0946 3.52304Z" fill="white"/>
<path d="M20.0054 4.89661C18.4437 4.89661 17.9189 5.26873 17.8652 5.31261L17.9996 5.48486L18.1301 5.65927C18.135 5.65656 18.603 5.32831 20.0205 5.32831C21.1537 5.32831 22.5875 5.6284 23.8571 5.89436C24.8235 6.0964 25.6598 6.27136 26.1722 6.27136L26.1327 5.83206C25.669 5.83206 24.856 5.66252 23.9173 5.46752C22.6308 5.19886 21.1802 4.89661 20.0054 4.89661Z" fill="white"/>
<path d="M20.0809 7.08887C18.489 7.08887 17.9533 7.47616 17.8975 7.52166L18.0345 7.69987L18.1683 7.88187C18.1732 7.87808 18.6509 7.53791 20.0961 7.53791C21.2536 7.53791 22.7156 7.84937 24.0123 8.1267C24.9982 8.33687 25.8524 8.51887 26.3745 8.51887L26.3339 8.06278C25.86 8.06278 25.0307 7.88566 24.0719 7.68253C22.76 7.40303 21.2791 7.08887 20.0809 7.08887Z" fill="white"/>
<path d="M20.159 9.36975C18.534 9.36975 17.9874 9.77329 17.9316 9.81988L18.0708 10.0073L18.2079 10.1963C18.2133 10.1931 18.6997 9.83775 20.1752 9.83775C21.3561 9.83775 22.8494 10.1628 24.1738 10.4509C25.1802 10.6703 26.0523 10.8604 26.5858 10.8604L26.542 10.3843C26.0577 10.3843 25.2116 10.2012 24.2334 9.98942C22.8933 9.69746 21.3821 9.36975 20.159 9.36975Z" fill="white"/>
<path d="M20.2392 11.7477C18.5801 11.7477 18.0238 12.168 17.9658 12.2162L18.1088 12.4112L18.248 12.6089C18.254 12.6051 18.7502 12.2346 20.2571 12.2346C21.4628 12.2346 22.9882 12.5732 24.3391 12.8738C25.3682 13.1035 26.2593 13.3017 26.8042 13.3017L26.7598 12.805C26.2647 12.805 25.4002 12.6127 24.4014 12.3923C23.032 12.0889 21.4888 11.7477 20.2392 11.7477Z" fill="white"/>
<path d="M20.3236 14.2263C18.6299 14.2263 18.0611 14.6656 18.001 14.7154L18.1478 14.9186L18.2908 15.1244C18.2951 15.1201 18.8032 14.7344 20.3415 14.7344C21.5722 14.7344 23.1311 15.0876 24.5129 15.4017C25.5637 15.6401 26.4743 15.8464 27.0311 15.8464L26.9845 15.3292C26.4797 15.3292 25.5962 15.1293 24.5757 14.8985C23.1766 14.5827 21.5998 14.2263 20.3236 14.2263Z" fill="white"/>
<path d="M20.4136 16.8134C18.6825 16.8134 18.1012 17.2716 18.04 17.3241L18.1885 17.5365L18.3352 17.7521C18.3401 17.7477 18.859 17.3436 20.4315 17.3436C21.6898 17.3436 23.2834 17.7136 24.6955 18.0408C25.7702 18.2905 26.7018 18.5071 27.2706 18.5071L27.2213 17.9655C26.7051 17.9655 25.8016 17.7559 24.7589 17.5148C23.3278 17.186 21.7163 16.8134 20.4136 16.8134Z" fill="white"/>
<path d="M20.5058 19.5157C18.7356 19.5157 18.1414 19.9951 18.0791 20.0498L18.2313 20.2708L18.3808 20.4962C18.3868 20.4918 18.9171 20.071 20.5242 20.071C21.8117 20.071 23.4411 20.4572 24.8857 20.8C25.9847 21.0606 26.9375 21.2859 27.5198 21.2859L27.4684 20.7193C26.9408 20.7193 26.0161 20.5027 24.9491 20.2502C23.486 19.9047 21.8372 19.5157 20.5058 19.5157Z" fill="white"/>
</svg>
