<svg width="141" height="65" viewBox="0 0 141 65" fill="none" xmlns="http://www.w3.org/2000/svg">
<path d="M12.614 61.8805L12.4249 61.8096C12.3833 61.7939 8.2461 60.2088 6.30806 56.6147C4.36994 53.0204 5.31895 48.6928 5.32876 48.6496L5.37342 48.4525L5.5625 48.5234C5.60407 48.5391 9.74117 50.1242 11.6793 53.7183C13.6174 57.3126 12.6684 61.6402 12.6586 61.6834L12.614 61.8805ZM6.6184 56.4474C8.25695 59.4862 11.5263 61.0439 12.3546 61.3996C12.5121 60.5117 13.006 56.9216 11.369 53.8856C9.73205 50.85 6.46143 49.2899 5.63273 48.9334C5.47515 49.8218 4.98141 53.4116 6.6184 56.4474Z" fill="#3F3D56"/>
<path d="M7.78845 55.354C11.2714 57.4495 12.6127 61.6116 12.6127 61.6116C12.6127 61.6116 8.30721 62.3763 4.82429 60.2809C1.34138 58.1855 0 54.0234 0 54.0234C0 54.0234 4.30554 53.2586 7.78845 55.354Z" fill="#D0CDE1"/>
<path d="M119.254 0.800494H80.4152V0H62.8044V0.800494H23.8058C23.4608 0.800494 23.1192 0.868447 22.8005 1.00047C22.4817 1.1325 22.1921 1.32601 21.9482 1.56996C21.7042 1.81391 21.5107 2.10353 21.3787 2.42226C21.2467 2.741 21.1787 3.08262 21.1787 3.42762V56.6094C21.1787 57.3061 21.4555 57.9744 21.9482 58.4671C22.4409 58.9597 23.1091 59.2365 23.8058 59.2365H119.254C119.599 59.2365 119.94 59.1686 120.259 59.0365C120.578 58.9045 120.867 58.711 121.111 58.4671C121.355 58.2231 121.549 57.9335 121.681 57.6147C121.813 57.296 121.881 56.9544 121.881 56.6094V3.42762C121.881 3.08262 121.813 2.741 121.681 2.42226C121.549 2.10352 121.355 1.81391 121.111 1.56996C120.867 1.32601 120.578 1.1325 120.259 1.00047C119.94 0.868446 119.599 0.800493 119.254 0.800494Z" fill="#3F3D56"/>
<path d="M118.358 5.44324H24.7002V58.2758H118.358V5.44324Z" fill="white"/>
<path d="M71.4498 4.00248C71.9804 4.00248 72.4104 3.57241 72.4104 3.04189C72.4104 2.51137 71.9804 2.0813 71.4498 2.0813C70.9193 2.0813 70.4893 2.51137 70.4893 3.04189C70.4893 3.57241 70.9193 4.00248 71.4498 4.00248Z" fill="#005387"/>
<path d="M112.982 12.1674H108.542V7.72778H112.982V12.1674ZM108.735 11.9744H112.789V7.92081H108.735V11.9744Z" fill="#005387"/>
<path d="M124.511 57.3153H115.371V56.6567C115.371 56.6396 115.367 56.6226 115.361 56.6067C115.354 56.5909 115.345 56.5765 115.332 56.5644C115.32 56.5522 115.306 56.5426 115.29 56.5361C115.274 56.5295 115.257 56.5261 115.24 56.5261H112.106C112.089 56.5261 112.072 56.5295 112.056 56.5361C112.04 56.5426 112.026 56.5522 112.014 56.5644C112.002 56.5765 111.992 56.5909 111.986 56.6067C111.979 56.6226 111.976 56.6396 111.976 56.6567V57.3153H110.017V56.6567C110.017 56.6396 110.014 56.6226 110.007 56.6067C110 56.5909 109.991 56.5765 109.979 56.5644C109.967 56.5522 109.952 56.5426 109.936 56.5361C109.921 56.5295 109.904 56.5261 109.886 56.5261H106.753C106.735 56.5261 106.718 56.5295 106.703 56.5361C106.687 56.5426 106.672 56.5522 106.66 56.5644C106.648 56.5765 106.638 56.5909 106.632 56.6067C106.625 56.6226 106.622 56.6396 106.622 56.6567V57.3153H104.663V56.6567C104.663 56.6396 104.66 56.6226 104.653 56.6067C104.647 56.5909 104.637 56.5765 104.625 56.5644C104.613 56.5522 104.599 56.5426 104.583 56.5361C104.567 56.5295 104.55 56.5261 104.533 56.5261H101.399C101.382 56.5261 101.365 56.5295 101.349 56.5361C101.333 56.5426 101.319 56.5522 101.307 56.5644C101.294 56.5765 101.285 56.5909 101.278 56.6067C101.272 56.6226 101.268 56.6396 101.268 56.6567V57.3153H99.3097V56.6567C99.3097 56.6396 99.3063 56.6226 99.2997 56.6067C99.2932 56.5909 99.2835 56.5765 99.2714 56.5644C99.2593 56.5522 99.2449 56.5426 99.2291 56.5361C99.2132 56.5295 99.1962 56.5261 99.1791 56.5261H96.0452C96.0281 56.5261 96.0111 56.5295 95.9953 56.5361C95.9794 56.5426 95.965 56.5522 95.9529 56.5644C95.9408 56.5765 95.9312 56.5909 95.9246 56.6067C95.918 56.6226 95.9147 56.6396 95.9147 56.6567V57.3153H93.956V56.6567C93.956 56.6396 93.9526 56.6226 93.9461 56.6067C93.9395 56.5909 93.9299 56.5765 93.9178 56.5644C93.9056 56.5522 93.8912 56.5426 93.8754 56.5361C93.8596 56.5295 93.8426 56.5261 93.8254 56.5261H90.6916C90.6744 56.5261 90.6575 56.5295 90.6416 56.5361C90.6258 56.5426 90.6114 56.5522 90.5993 56.5644C90.5871 56.5765 90.5775 56.5909 90.571 56.6067C90.5644 56.6226 90.561 56.6396 90.561 56.6567V57.3153H88.6023V56.6567C88.6024 56.6396 88.599 56.6226 88.5924 56.6067C88.5859 56.5909 88.5762 56.5765 88.5641 56.5644C88.552 56.5522 88.5376 56.5426 88.5218 56.5361C88.5059 56.5295 88.4889 56.5261 88.4718 56.5261H85.3379C85.3208 56.5261 85.3038 56.5295 85.288 56.5361C85.2721 56.5426 85.2577 56.5522 85.2456 56.5644C85.2335 56.5765 85.2239 56.5909 85.2173 56.6067C85.2107 56.6226 85.2074 56.6396 85.2074 56.6567V57.3153H83.2487V56.6567C83.2487 56.6396 83.2453 56.6226 83.2388 56.6067C83.2322 56.5909 83.2226 56.5765 83.2105 56.5644C83.1983 56.5522 83.1839 56.5426 83.1681 56.5361C83.1523 56.5295 83.1353 56.5261 83.1181 56.5261H58.5697C58.5525 56.5261 58.5355 56.5295 58.5197 56.5361C58.5038 56.5426 58.4895 56.5522 58.4773 56.5644C58.4652 56.5765 58.4556 56.5909 58.449 56.6067C58.4425 56.6226 58.4391 56.6396 58.4391 56.6567V57.3153H56.4804V56.6567C56.4804 56.6396 56.477 56.6226 56.4705 56.6067C56.4639 56.5909 56.4543 56.5765 56.4422 56.5644C56.4301 56.5522 56.4157 56.5426 56.3998 56.5361C56.384 56.5295 56.367 56.5261 56.3498 56.5261H53.216C53.1989 56.5261 53.1819 56.5295 53.166 56.5361C53.1502 56.5426 53.1358 56.5522 53.1237 56.5644C53.1115 56.5765 53.1019 56.5909 53.0954 56.6067C53.0888 56.6226 53.0854 56.6396 53.0854 56.6567V57.3153H51.1268V56.6567C51.1268 56.6396 51.1234 56.6226 51.1168 56.6067C51.1103 56.5909 51.1007 56.5765 51.0885 56.5644C51.0764 56.5522 51.062 56.5426 51.0462 56.5361C51.0303 56.5295 51.0133 56.5261 50.9962 56.5261H47.8623C47.8452 56.5261 47.8282 56.5295 47.8124 56.5361C47.7965 56.5426 47.7821 56.5522 47.77 56.5644C47.7579 56.5765 47.7483 56.5909 47.7417 56.6067C47.7351 56.6226 47.7318 56.6396 47.7318 56.6567V57.3153H45.7731V56.6567C45.7731 56.6396 45.7697 56.6226 45.7632 56.6067C45.7566 56.5909 45.747 56.5765 45.7349 56.5644C45.7227 56.5522 45.7083 56.5426 45.6925 56.5361C45.6767 56.5295 45.6597 56.5261 45.6425 56.5261H42.5087C42.4915 56.5261 42.4746 56.5295 42.4587 56.5361C42.4429 56.5426 42.4285 56.5522 42.4164 56.5644C42.4042 56.5765 42.3946 56.5909 42.3881 56.6067C42.3815 56.6226 42.3781 56.6396 42.3781 56.6567V57.3153H40.4195V56.6567C40.4195 56.6396 40.4161 56.6226 40.4095 56.6067C40.403 56.5909 40.3933 56.5765 40.3812 56.5644C40.3691 56.5522 40.3547 56.5426 40.3389 56.5361C40.323 56.5295 40.306 56.5261 40.2889 56.5261H37.155C37.1379 56.5261 37.1209 56.5295 37.1051 56.5361C37.0892 56.5426 37.0748 56.5522 37.0627 56.5644C37.0506 56.5765 37.041 56.5909 37.0344 56.6067C37.0278 56.6226 37.0245 56.6396 37.0245 56.6567V57.3153H35.0658V56.6567C35.0658 56.6396 35.0624 56.6226 35.0559 56.6067C35.0493 56.5909 35.0397 56.5765 35.0276 56.5644C35.0154 56.5522 35.001 56.5426 34.9852 56.5361C34.9694 56.5295 34.9524 56.5261 34.9352 56.5261H31.8014C31.7842 56.5261 31.7672 56.5295 31.7514 56.5361C31.7356 56.5426 31.7212 56.5522 31.709 56.5644C31.6969 56.5765 31.6873 56.5909 31.6807 56.6067C31.6742 56.6226 31.6708 56.6396 31.6708 56.6567V57.3153H29.7121V56.6567C29.7121 56.6396 29.7088 56.6226 29.7022 56.6067C29.6956 56.5909 29.686 56.5765 29.6739 56.5644C29.6618 56.5522 29.6474 56.5426 29.6315 56.5361C29.6157 56.5295 29.5987 56.5261 29.5816 56.5261H26.4477C26.4306 56.5261 26.4136 56.5295 26.3978 56.5361C26.3819 56.5426 26.3675 56.5522 26.3554 56.5644C26.3433 56.5765 26.3336 56.5909 26.3271 56.6067C26.3205 56.6226 26.3171 56.6396 26.3171 56.6567V57.3153H20.3106C19.4795 57.3153 18.6824 57.6454 18.0946 58.2331C17.5069 58.8209 17.1768 59.618 17.1768 60.4491V61.8662C17.1768 62.6973 17.5069 63.4944 18.0946 64.0821C18.6824 64.6698 19.4795 65 20.3106 65H124.511C125.342 65 126.139 64.6698 126.727 64.0821C127.315 63.4944 127.645 62.6973 127.645 61.8662V60.4491C127.645 59.618 127.315 58.8209 126.727 58.2331C126.139 57.6454 125.342 57.3153 124.511 57.3153Z" fill="#3F3D56"/>
<path d="M140.534 61.7852H4.28613V62.201H140.534V61.7852Z" fill="#3F3D56"/>
<path d="M112.569 34.8827H82.4141V17.7153H112.569V34.8827ZM82.7126 34.5841H112.27V18.0139H82.7126V34.5841Z" fill="#3F3D56"/>
<path d="M57.3345 38.3161H30.4639V21.5966H57.3345V38.3161ZM30.7624 38.0175H57.0359V21.8951H30.7624V38.0175Z" fill="#3F3D56"/>
<path d="M43.0178 31.8969L42.9921 31.5631C42.9151 30.8699 43.1461 30.1124 43.788 29.3422C44.3658 28.6617 44.6867 28.1611 44.6867 27.5834C44.6867 26.9286 44.2759 26.4922 43.4671 26.4793C43.0045 26.4775 42.5523 26.6163 42.1704 26.8773L41.8623 26.0685C42.286 25.7603 43.0178 25.5549 43.6981 25.5549C45.1746 25.5549 45.8421 26.4665 45.8421 27.4421C45.8421 28.3152 45.3542 28.9442 44.738 29.6759C44.1732 30.3434 43.9678 30.9084 44.0062 31.5631L44.0191 31.8969L43.0178 31.8969ZM42.7353 33.6943C42.7284 33.5895 42.7433 33.4845 42.7791 33.3858C42.8148 33.2871 42.8706 33.1969 42.943 33.1209C43.0154 33.0449 43.1028 32.9847 43.1996 32.9442C43.2964 32.9037 43.4006 32.8837 43.5056 32.8855C43.9549 32.8855 44.2631 33.2191 44.2631 33.6943C44.2673 33.7972 44.2507 33.9 44.2142 33.9964C44.1777 34.0927 44.1222 34.1807 44.0508 34.2551C43.9795 34.3294 43.8938 34.3886 43.799 34.429C43.7042 34.4694 43.6022 34.4903 43.4992 34.4903C43.3961 34.4903 43.2942 34.4694 43.1994 34.429C43.1046 34.3886 43.0189 34.3294 42.9476 34.2551C42.8762 34.1807 42.8206 34.0927 42.7842 33.9964C42.7477 33.9 42.7311 33.7972 42.7353 33.6943Z" fill="#005387"/>
<path d="M96.6096 28.1651L96.5839 27.8313C96.5069 27.1381 96.7379 26.3806 97.3798 25.6104C97.9576 24.9299 98.2785 24.4293 98.2785 23.8515C98.2785 23.1968 97.8677 22.7604 97.0589 22.7475C96.5963 22.7457 96.1441 22.8845 95.7622 23.1455L95.4541 22.3367C95.8778 22.0285 96.6096 21.8231 97.2899 21.8231C98.7664 21.8231 99.4339 22.7347 99.4339 23.7103C99.4339 24.5834 98.946 25.2124 98.3298 25.9441C97.765 26.6116 97.5596 27.1765 97.5981 27.8313L97.6109 28.1651L96.6096 28.1651ZM96.3271 29.9624C96.3202 29.8577 96.3351 29.7527 96.3709 29.654C96.4066 29.5553 96.4624 29.4651 96.5348 29.3891C96.6072 29.3131 96.6946 29.2529 96.7914 29.2124C96.8882 29.1719 96.9924 29.1519 97.0974 29.1536C97.5467 29.1536 97.8549 29.4873 97.8549 29.9624C97.8591 30.0654 97.8425 30.1682 97.806 30.2645C97.7695 30.3609 97.7139 30.4489 97.6426 30.5233C97.5712 30.5976 97.4856 30.6568 97.3908 30.6972C97.296 30.7376 97.194 30.7584 97.091 30.7584C96.9879 30.7584 96.886 30.7376 96.7912 30.6972C96.6964 30.6568 96.6107 30.5976 96.5394 30.5233C96.468 30.4489 96.4125 30.3609 96.376 30.2645C96.3395 30.1682 96.3229 30.0654 96.3271 29.9624Z" fill="#005387"/>
<path d="M72.0566 51.8216C79.171 51.8216 84.9384 46.0542 84.9384 38.9398C84.9384 31.8254 79.171 26.058 72.0566 26.058C64.9422 26.058 59.1748 31.8254 59.1748 38.9398C59.1748 46.0542 64.9422 51.8216 72.0566 51.8216Z" fill="#2F2E41"/>
<path d="M67.0825 56.5802L63.2314 55.883L64.4805 47.8422L68.3313 48.5393L67.0825 56.5802Z" fill="#2F2E41"/>
<path d="M76.0325 49.9336L72.1816 49.2365L70.9326 56.1359L74.7835 56.8331L76.0325 49.9336Z" fill="#2F2E41"/>
<path d="M77.3581 57.2089C77.4918 56.5469 76.1689 55.7212 74.4034 55.3648C72.6379 55.0084 71.0983 55.2562 70.9647 55.9183C70.831 56.5804 72.1539 57.406 73.9194 57.7624C75.6849 58.1188 77.2245 57.871 77.3581 57.2089Z" fill="#2F2E41"/>
<path d="M69.3365 57.001C69.4252 56.3315 68.0497 55.5969 66.2641 55.3604C64.4786 55.1238 62.9593 55.4749 62.8706 56.1445C62.7819 56.814 64.1574 57.5486 65.9429 57.7851C67.7285 58.0216 69.2478 57.6706 69.3365 57.001Z" fill="#2F2E41"/>
<path d="M72.9583 40.1915C75.3898 40.1915 77.361 38.2204 77.361 35.7889C77.361 33.3574 75.3898 31.3862 72.9583 31.3862C70.5268 31.3862 68.5557 33.3574 68.5557 35.7889C68.5557 38.2204 70.5268 40.1915 72.9583 40.1915Z" fill="white"/>
<path d="M74.7683 35.6783C75.5788 35.6783 76.2359 35.0212 76.2359 34.2107C76.2359 33.4002 75.5788 32.7432 74.7683 32.7432C73.9578 32.7432 73.3008 33.4002 73.3008 34.2107C73.3008 35.0212 73.9578 35.6783 74.7683 35.6783Z" fill="#3F3D56"/>
<path d="M61.8952 24.9258C61.7015 20.1567 65.8117 16.1173 71.0757 15.9035C76.3396 15.6897 80.7639 19.3824 80.9577 24.1514C81.1514 28.9205 77.4923 30.004 72.2283 30.2179C66.9644 30.4317 62.089 29.6948 61.8952 24.9258Z" fill="#005387"/>
<path d="M84.4033 38.5639C87.8706 37.7691 90.4791 36.2425 90.2296 35.154C89.9801 34.0655 86.9671 33.8274 83.4998 34.6221C80.0325 35.4169 77.4239 36.9436 77.6734 38.032C77.9229 39.1205 80.936 39.3586 84.4033 38.5639Z" fill="#2F2E41"/>
<path d="M59.1172 42.769C62.5845 41.9742 65.193 40.4475 64.9435 39.359C64.694 38.2705 61.6809 38.0324 58.2136 38.8272C54.7463 39.622 52.1378 41.1486 52.3873 42.2371C52.6368 43.3256 55.6499 43.5637 59.1172 42.769Z" fill="#2F2E41"/>
<path d="M68.5186 44.0164C68.45 44.3957 68.4567 44.7848 68.5384 45.1615C68.6201 45.5382 68.7752 45.8951 68.9948 46.2118C69.2145 46.5286 69.4944 46.7989 69.8185 47.0075C70.1426 47.2161 70.5047 47.3588 70.8839 47.4274C71.2632 47.4961 71.6523 47.4894 72.029 47.4077C72.4057 47.326 72.7626 47.1709 73.0793 46.9512C73.396 46.7316 73.6664 46.4517 73.875 46.1276C74.0836 45.8034 74.2263 45.4414 74.2949 45.0621C74.5837 43.467 73.3504 42.9026 71.7553 42.6138C70.1603 42.3251 68.8074 42.4214 68.5186 44.0164Z" fill="white"/>
<path d="M44.2504 1.95886H23.0693V22.1069H44.2504V1.95886Z" fill="#D0CDE1"/>
<path d="M41.8428 4.36584H25.4756V16.8819H41.8428V4.36584Z" fill="white"/>
<path d="M34.3626 18.3585H25.46V18.8271H34.3626V18.3585Z" fill="#005387"/>
<path d="M34.3626 19.7642H25.46V20.2327H34.3626V19.7642Z" fill="#005387"/>
<path d="M28.3879 12.5015C29.423 12.5015 30.2622 11.6624 30.2622 10.6273C30.2622 9.59218 29.423 8.75305 28.3879 8.75305C27.3528 8.75305 26.5137 9.59218 26.5137 10.6273C26.5137 11.6624 27.3528 12.5015 28.3879 12.5015Z" fill="#3F3D56"/>
<path d="M33.6594 12.5015C34.6945 12.5015 35.5336 11.6624 35.5336 10.6273C35.5336 9.59218 34.6945 8.75305 33.6594 8.75305C32.6243 8.75305 31.7852 9.59218 31.7852 10.6273C31.7852 11.6624 32.6243 12.5015 33.6594 12.5015Z" fill="#005387"/>
<path d="M38.9309 12.5015C39.966 12.5015 40.8051 11.6624 40.8051 10.6273C40.8051 9.59218 39.966 8.75305 38.9309 8.75305C37.8958 8.75305 37.0566 9.59218 37.0566 10.6273C37.0566 11.6624 37.8958 12.5015 38.9309 12.5015Z" fill="#E6E6E6"/>
<path d="M33.6598 4.06748C34.1773 4.06748 34.5969 3.64791 34.5969 3.13036C34.5969 2.6128 34.1773 2.19324 33.6598 2.19324C33.1422 2.19324 32.7227 2.6128 32.7227 3.13036C32.7227 3.64791 33.1422 4.06748 33.6598 4.06748Z" fill="#3F3D56"/>
<path d="M54.3256 40.9716H33.1445V61.1196H54.3256V40.9716Z" fill="#D0CDE1"/>
<path d="M51.918 43.3785H35.5508V55.8946H51.918V43.3785Z" fill="white"/>
<path d="M44.8903 45.4354H39.1523V51.1733H44.8903V45.4354Z" fill="#005387"/>
<path d="M41.3496 46.8702V53.8377H48.3171V46.8702H41.3496ZM48.0149 53.5355H41.6518V47.1725H48.0149V53.5355Z" fill="#3F3D56"/>
<path d="M44.4368 57.137H35.5342V57.6055H44.4368V57.137Z" fill="#005387"/>
<path d="M43.735 43.0801C44.2525 43.0801 44.6721 42.6605 44.6721 42.1429C44.6721 41.6254 44.2525 41.2058 43.735 41.2058C43.2174 41.2058 42.7979 41.6254 42.7979 42.1429C42.7979 42.6605 43.2174 43.0801 43.735 43.0801Z" fill="#3F3D56"/>
<path d="M109.471 34.9396H88.29V55.0877H109.471V34.9396Z" fill="#005387"/>
<path d="M107.064 37.3466H90.6973V49.8626H107.064V37.3466Z" fill="white"/>
<path d="M100.641 47.1448H97.1201V48.1882H100.641V47.1448Z" fill="#3F3D56"/>
<path d="M104.899 39.0211H92.8643V39.4683H104.899V39.0211Z" fill="#3F3D56"/>
<path d="M104.899 40.4371H92.8643V40.8843H104.899V40.4371Z" fill="#3F3D56"/>
<path d="M104.899 41.8531H92.8643V42.3003H104.899V41.8531Z" fill="#3F3D56"/>
<path d="M104.899 43.2693H92.8643V43.7165H104.899V43.2693Z" fill="#3F3D56"/>
<path d="M104.899 44.6854H92.8643V45.1326H104.899V44.6854Z" fill="#3F3D56"/>
<path d="M99.5833 51.105H90.6807V51.5735H99.5833V51.105Z" fill="#F2F2F2"/>
<path d="M103.098 52.2765H90.6807V52.745H103.098V52.2765Z" fill="#F2F2F2"/>
<path d="M98.8805 37.0482C99.398 37.0482 99.8176 36.6286 99.8176 36.1111C99.8176 35.5935 99.398 35.174 98.8805 35.174C98.3629 35.174 97.9434 35.5935 97.9434 36.1111C97.9434 36.6286 98.3629 37.0482 98.8805 37.0482Z" fill="#3F3D56"/>
</svg>
