<svg width="62" height="74" viewBox="0 0 62 74" fill="none" xmlns="http://www.w3.org/2000/svg">
<path d="M0.439286 35.3932C0.66498 35.7701 0.970571 36.0929 1.33454 36.339C1.6985 36.585 2.11199 36.7483 2.54587 36.8172C2.97975 36.8862 3.42347 36.8592 3.84578 36.7381C4.26809 36.617 4.65871 36.4048 4.99014 36.1164L14.2538 41.4294L13.9085 35.8908L5.16455 31.6945C4.64318 31.1699 3.94746 30.8547 3.20923 30.8087C2.471 30.7627 1.74155 30.9891 1.1591 31.445C0.576654 31.9009 0.181672 32.5547 0.049005 33.2823C-0.0836618 34.01 0.0552033 34.761 0.439286 35.3932Z" fill="#FFB8B8"/>
<path d="M27.2586 56.6771C24.5107 60.5231 24.6091 66.9576 25.3757 73.9999H38.3679L38.9328 72.6819L39.6859 73.9999H51.9249C51.9249 73.9999 50.9835 56.1122 49.2888 55.5473C47.5942 54.9824 27.2586 56.6771 27.2586 56.6771Z" fill="#2F2E41"/>
<path d="M38.3676 16.4942C42.0073 16.4942 44.9578 13.5436 44.9578 9.90395C44.9578 6.26427 42.0073 3.31372 38.3676 3.31372C34.7279 3.31372 31.7773 6.26427 31.7773 9.90395C31.7773 13.5436 34.7279 16.4942 38.3676 16.4942Z" fill="#FFB8B8"/>
<path d="M43.1304 18.204L44.4192 20.6741L53.333 24.6477L50.9899 47.3229L50.0038 49.671L50.5366 51.7102L49.252 53.2151C50.5415 54.3818 50.7052 55.6032 50.0038 56.8666L45.8989 57.8069C45.8989 57.8069 23.075 59.8364 24.9985 56.3005C27.1002 52.4371 27.6354 41.0272 22.9957 34.93C19.0566 29.7537 22.0808 23.0368 22.0808 23.0368L31.4242 20.2445L34.8609 18.204L43.1304 18.204Z" fill="#3F3D56"/>
<path d="M41.2934 0.250246C41.3243 0.184722 41.3742 0.12995 41.4365 0.0929639C41.4988 0.055978 41.5708 0.0384665 41.6431 0.0426794C38.626 -0.137797 35.448 0.213858 32.9239 1.8765C32.3124 2.27931 31.7358 2.75976 31.0704 3.05196C31.039 3.06607 31.0118 3.08807 30.9914 3.11581C30.971 3.14355 30.9581 3.1761 30.954 3.21028C30.9499 3.24447 30.9547 3.27913 30.968 3.31091C30.9812 3.34269 31.0025 3.37051 31.0296 3.39165L31.1027 3.44897C31.1315 3.47158 31.1536 3.50167 31.1666 3.53596C31.1795 3.57025 31.1828 3.60742 31.176 3.64345C31.1693 3.67947 31.1528 3.71296 31.1284 3.74027C31.104 3.76759 31.0725 3.78768 31.0375 3.79836C31.0009 3.8095 30.9683 3.83085 30.9435 3.8599C30.9187 3.88894 30.9027 3.92447 30.8974 3.96231C30.8921 4.00014 30.8978 4.03869 30.9137 4.07343C30.9296 4.10817 30.9551 4.13764 30.9871 4.15838L31.5472 4.52038C31.5754 4.53829 31.5987 4.563 31.6149 4.59224C31.6311 4.62148 31.6396 4.65431 31.6398 4.68773C31.64 4.72114 31.6318 4.75406 31.6159 4.78348C31.6001 4.81289 31.5771 4.83785 31.5491 4.85607C31.5016 4.88537 31.4518 4.91063 31.4001 4.93159C31.368 4.94367 31.3395 4.96383 31.3174 4.99012C31.2953 5.01641 31.2803 5.04796 31.2739 5.08171C31.2676 5.11546 31.27 5.15028 31.281 5.18282C31.292 5.21536 31.3112 5.24451 31.3368 5.26748C31.5793 5.4834 31.7654 5.75538 31.8787 6.05969C32.0654 6.5451 32.0989 7.07375 32.1304 7.59285C32.3234 6.84384 33.1408 6.40294 33.913 6.35813C34.6851 6.31333 35.4382 6.56811 36.1897 6.75125C37.8264 7.14899 39.5263 7.21439 41.1887 6.94356C40.6242 8.07646 41.1004 9.42776 41.5796 10.5993L43.1307 9.93446C45.261 8.73196 43.7772 13.8187 42.9807 14.5171C44.6069 15.0808 48.8631 8.82359 47.4939 6.45007C46.7816 5.2154 47.2872 3.62298 45.8869 2.45198C45.2006 1.72951 43.8304 2.05063 43.1307 1.45017C42.8554 1.21384 43.2751 0.581568 42.8967 0.443776C42.771 0.398009 41.3142 0.20412 41.2934 0.250246Z" fill="#2F2E41"/>
<path d="M30.1308 20.8824C28.9215 26.2512 25.8199 38.7865 22.6732 41.408C22.4736 41.5964 22.2343 41.7377 21.973 41.8215C10.9122 44.516 7.36816 37.6427 7.36816 37.6427C7.36816 37.6427 10.3323 36.1982 10.4075 33.3748L16.3851 35.2295L21.596 23.5029L22.3628 22.7877L22.3671 22.7834L30.1308 20.8824Z" fill="#3F3D56"/>
<path d="M53.7133 70.46C54.03 70.1555 54.2761 69.7853 54.4343 69.3755C54.5925 68.9656 54.6588 68.526 54.6288 68.0878C54.5987 67.6495 54.4729 67.2231 54.2602 66.8387C54.0475 66.4543 53.7531 66.1212 53.3977 65.8628L56.4985 55.6438L51.1782 57.2221L49.0494 66.6843C48.655 67.3101 48.5038 68.0587 48.6245 68.7885C48.7452 69.5182 49.1294 70.1783 49.7043 70.6437C50.2792 71.1091 51.0048 71.3475 51.7437 71.3136C52.4826 71.2798 53.1834 70.976 53.7133 70.46Z" fill="#FFB8B8"/>
<path d="M50.8755 24.076L53.3331 24.6477C53.3331 24.6477 63.4911 44.4116 61.0433 48.1775C58.5955 51.9433 55.5967 64.411 55.5967 64.411C55.5967 64.411 51.1615 63.5293 49.4668 61.2698L52.5701 46.4829L49.3691 34.0556L50.8755 24.076Z" fill="#3F3D56"/>
<path d="M4.25098 53.4248L4.33923 21.5938C4.34174 20.9496 4.59971 20.3326 5.05653 19.8783C5.51336 19.424 6.13173 19.1695 6.77599 19.1705L30.8154 19.2372C31.4597 19.2397 32.0767 19.4977 32.5309 19.9545C32.9852 20.4113 33.2398 21.0297 33.2387 21.6739L33.1505 53.5049C33.148 54.1492 32.89 54.7661 32.4332 55.2204C31.9764 55.6747 31.358 55.9293 30.7137 55.9282L6.67426 55.8616C6.03001 55.859 5.41306 55.6011 4.95876 55.1443C4.50446 54.6874 4.24992 54.0691 4.25098 53.4248Z" fill="#005387"/>
<path d="M6.12208 43.8156L6.17882 23.3518C6.18116 22.7484 6.42275 22.1706 6.85058 21.7451C7.27841 21.3197 7.85754 21.0813 8.46092 21.0823L29.1208 21.1396C29.7242 21.1419 30.302 21.3835 30.7275 21.8113C31.153 22.2391 31.3914 22.8183 31.3904 23.4217L31.3119 51.7469C31.3095 52.3503 31.0679 52.9281 30.64 53.3535C30.2122 53.779 29.633 54.0174 29.0297 54.0164L16.2313 53.9809C13.5437 53.9704 10.9699 52.8943 9.07474 50.9886C7.17955 49.0829 6.11768 46.5032 6.12208 43.8156Z" fill="white"/>
<path d="M26.7527 30.0712H10.6433C10.387 30.0712 10.1411 29.9694 9.95986 29.7881C9.77859 29.6068 9.67676 29.361 9.67676 29.1046C9.67676 28.8483 9.77859 28.6024 9.95986 28.4212C10.1411 28.2399 10.387 28.1381 10.6433 28.1381H26.7527C27.0091 28.1381 27.2549 28.2399 27.4362 28.4212C27.6175 28.6024 27.7193 28.8483 27.7193 29.1046C27.7193 29.361 27.6175 29.6068 27.4362 29.7881C27.2549 29.9694 27.0091 30.0712 26.7527 30.0712Z" fill="#005387"/>
<path d="M14.1874 25.6143H10.6433C10.387 25.6143 10.1411 25.5125 9.95986 25.3312C9.77859 25.1499 9.67676 24.9041 9.67676 24.6477C9.67676 24.3914 9.77859 24.1455 9.95986 23.9643C10.1411 23.783 10.387 23.6812 10.6433 23.6812H14.1874C14.4437 23.6812 14.6896 23.783 14.8709 23.9643C15.0521 24.1455 15.154 24.3914 15.154 24.6477C15.154 24.9041 15.0521 25.1499 14.8709 25.3312C14.6896 25.5125 14.4437 25.6143 14.1874 25.6143Z" fill="#005387"/>
<path d="M26.7527 34.5281H10.6433C10.387 34.5281 10.1411 34.4263 9.95986 34.245C9.77859 34.0637 9.67676 33.8179 9.67676 33.5615C9.67676 33.3052 9.77859 33.0593 9.95986 32.8781C10.1411 32.6968 10.387 32.595 10.6433 32.595H26.7527C27.0091 32.595 27.2549 32.6968 27.4362 32.8781C27.6175 33.0593 27.7193 33.3052 27.7193 33.5615C27.7193 33.8179 27.6175 34.0637 27.4362 34.245C27.2549 34.4263 27.0091 34.5281 26.7527 34.5281Z" fill="#005387"/>
<path d="M26.7527 38.9851H10.6433C10.387 38.9851 10.1411 38.8833 9.95986 38.702C9.77859 38.5208 9.67676 38.2749 9.67676 38.0186C9.67676 37.7622 9.77859 37.5164 9.95986 37.3351C10.1411 37.1538 10.387 37.052 10.6433 37.052H26.7527C27.0091 37.052 27.2549 37.1538 27.4362 37.3351C27.6175 37.5164 27.7193 37.7622 27.7193 38.0186C27.7193 38.2749 27.6175 38.5208 27.4362 38.702C27.2549 38.8833 27.0091 38.9851 26.7527 38.9851Z" fill="#005387"/>
<path d="M25.4495 50.7289C27.5735 50.7289 29.2954 49.007 29.2954 46.8829C29.2954 44.7589 27.5735 43.037 25.4495 43.037C23.3254 43.037 21.6035 44.7589 21.6035 46.8829C21.6035 49.007 23.3254 50.7289 25.4495 50.7289Z" fill="#005387"/>
<path d="M24.9246 48.8846C24.8582 48.8846 24.7927 48.8691 24.7333 48.8394C24.6739 48.8097 24.6222 48.7666 24.5824 48.7134L23.5331 47.3144C23.4993 47.2695 23.4747 47.2183 23.4607 47.1639C23.4467 47.1094 23.4436 47.0528 23.4515 46.9971C23.4595 46.9414 23.4783 46.8879 23.5069 46.8395C23.5355 46.7911 23.5734 46.7488 23.6184 46.7151C23.6634 46.6814 23.7146 46.6568 23.769 46.6429C23.8235 46.629 23.8802 46.6259 23.9358 46.6339C23.9915 46.6419 24.045 46.6607 24.0934 46.6894C24.1417 46.7181 24.1839 46.7561 24.2176 46.8011L24.9041 47.7163L26.6671 45.0717C26.6982 45.0248 26.7382 44.9845 26.7849 44.953C26.8316 44.9216 26.8841 44.8997 26.9393 44.8886C26.9945 44.8774 27.0513 44.8773 27.1065 44.8882C27.1618 44.8991 27.2143 44.9208 27.2611 44.952C27.308 44.9832 27.3482 45.0234 27.3795 45.0702C27.4108 45.117 27.4325 45.1695 27.4435 45.2247C27.4544 45.2799 27.4544 45.3368 27.4433 45.392C27.4323 45.4472 27.4104 45.4996 27.3791 45.5464L25.2806 48.6941C25.2426 48.751 25.1916 48.798 25.1317 48.8311C25.0718 48.8643 25.0049 48.8825 24.9365 48.8845C24.9325 48.8845 24.9286 48.8846 24.9246 48.8846Z" fill="white"/>
<path d="M17.2486 11.7602C18.2569 11.7602 19.0743 10.9428 19.0743 9.9345C19.0743 8.92617 18.2569 8.10876 17.2486 8.10876C16.2403 8.10876 15.4229 8.92617 15.4229 9.9345C15.4229 10.9428 16.2403 11.7602 17.2486 11.7602Z" fill="#F2F2F2"/>
<path d="M10.5894 64.2768C11.5977 64.2768 12.4151 63.4594 12.4151 62.4511C12.4151 61.4428 11.5977 60.6254 10.5894 60.6254C9.58108 60.6254 8.76367 61.4428 8.76367 62.4511C8.76367 63.4594 9.58108 64.2768 10.5894 64.2768Z" fill="#F2F2F2"/>
<path d="M52.5816 18.8484C53.5899 18.8484 54.4073 18.031 54.4073 17.0226C54.4073 16.0143 53.5899 15.1969 52.5816 15.1969C51.5733 15.1969 50.7559 16.0143 50.7559 17.0226C50.7559 18.031 51.5733 18.8484 52.5816 18.8484Z" fill="#F2F2F2"/>
</svg>
