<svg width="123" height="89" viewBox="0 0 123 89" fill="none" xmlns="http://www.w3.org/2000/svg">
<path d="M122.822 88.1695H0.177746C0.130605 88.1695 0.0853941 88.1507 0.0520604 88.1174C0.0187266 88.0841 0 88.0389 0 87.9917C0 87.9446 0.0187266 87.8994 0.0520604 87.866C0.0853941 87.8327 0.130605 87.814 0.177746 87.814H122.822C122.869 87.814 122.915 87.8327 122.948 87.866C122.981 87.8994 123 87.9446 123 87.9917C123 88.0389 122.981 88.0841 122.948 88.1174C122.915 88.1507 122.869 88.1695 122.822 88.1695Z" fill="#CCCCCC"/>
<path d="M110.683 57.1704H38.5186C38.2122 57.1704 37.9183 57.2921 37.7017 57.5088C37.485 57.7255 37.3633 58.0193 37.3633 58.3258C37.3633 58.6322 37.485 58.926 37.7017 59.1427C37.9183 59.3594 38.2122 59.4811 38.5186 59.4811H40.5627V87.1206C40.5627 87.427 40.6844 87.7208 40.9011 87.9375C41.1178 88.1542 41.4116 88.2759 41.7181 88.2759C42.0245 88.2759 42.3183 88.1542 42.535 87.9375C42.7517 87.7208 42.8734 87.427 42.8734 87.1206L42.891 59.4811H106.151V87.1206C106.151 87.427 106.273 87.7208 106.489 87.9375C106.706 88.1542 107 88.2759 107.306 88.2759C107.613 88.2759 107.906 88.1542 108.123 87.9375C108.34 87.7208 108.462 87.427 108.462 87.1206V60.0903L108.798 59.4811H110.683C110.99 59.4811 111.284 59.3594 111.5 59.1427C111.717 58.926 111.839 58.6322 111.839 58.3258C111.839 58.0193 111.717 57.7255 111.5 57.5088C111.284 57.2921 110.99 57.1704 110.683 57.1704Z" fill="#CCCCCC"/>
<path d="M78.5273 57.7751H56.6678C56.2445 57.7746 55.8387 57.6062 55.5394 57.307C55.2401 57.0077 55.0718 56.6019 55.0713 56.1786V44.1436C55.0718 43.7203 55.2401 43.3145 55.5394 43.0152C55.8387 42.716 56.2445 42.5476 56.6678 42.5471H78.5273C78.9505 42.5476 79.3563 42.716 79.6556 43.0152C79.9549 43.3145 80.1233 43.7203 80.1237 44.1436V56.1786C80.1233 56.6019 79.9549 57.0077 79.6556 57.307C79.3563 57.6062 78.9505 57.7746 78.5273 57.7751Z" fill="#3F3D56"/>
<path d="M78.527 43.7758H56.6677C56.5702 43.776 56.4767 43.8148 56.4078 43.8838C56.3388 43.9527 56.3 44.0462 56.2998 44.1437V56.1788C56.3 56.2764 56.3388 56.3698 56.4078 56.4388C56.4767 56.5077 56.5702 56.5466 56.6677 56.5468H78.527C78.6245 56.5466 78.7179 56.5077 78.7869 56.4388C78.8558 56.3698 78.8947 56.2764 78.8949 56.1788V44.1437C78.8947 44.0462 78.8558 43.9527 78.7869 43.8838C78.7179 43.8148 78.6245 43.776 78.527 43.7758Z" fill="white"/>
<path d="M69.462 52.2966C69.462 52.2966 66.8452 51.6936 65.4059 52.7991C63.9667 53.9046 67.2377 56.4171 67.2377 56.4171L69.462 52.2966Z" fill="#2F2E41"/>
<path d="M67.7252 51.1572C69.0884 51.1572 70.1936 50.0521 70.1936 48.6888C70.1936 47.3256 69.0884 46.2205 67.7252 46.2205C66.362 46.2205 65.2568 47.3256 65.2568 48.6888C65.2568 50.0521 66.362 51.1572 67.7252 51.1572Z" fill="#A0616A"/>
<path d="M65.8168 45.2239C65.9814 44.9445 66.22 44.716 66.5062 44.5637C66.7925 44.4114 67.1153 44.3412 67.439 44.3608C67.7775 44.4032 68.1079 44.4957 68.4193 44.6352L70.0329 45.2646C70.4505 45.4275 70.9078 45.627 71.089 46.037C71.2571 46.4174 71.1317 46.8568 71.0047 47.2529L70.4009 49.1359C70.3341 48.7097 70.2193 48.2925 70.0588 47.8921C69.8957 47.489 69.601 47.1529 69.2226 46.9386C68.8035 46.7236 68.3095 46.7281 67.8389 46.7507C67.1726 46.7828 66.448 46.8676 65.9745 47.3376C65.7232 47.6045 65.5528 47.9373 65.4831 48.2973C65.4146 48.6553 65.3801 49.0191 65.3801 49.3836C65.1068 48.9139 64.8766 48.4204 64.6923 47.9091C64.5407 47.5285 64.4543 47.125 64.4368 46.7156C64.4209 46.3027 64.5579 45.8985 64.8215 45.5804C64.9553 45.4249 65.1299 45.3099 65.3256 45.2483C65.5213 45.1867 65.7302 45.181 65.929 45.2318L65.8168 45.2239Z" fill="#2F2E41"/>
<path d="M73.6194 54.4369C73.5962 54.3535 73.5489 54.2789 73.4835 54.2222C73.418 54.1656 73.3373 54.1296 73.2515 54.1187C73.2458 54.1148 73.2398 54.1112 73.2337 54.1081L69.5488 52.043C69.4435 51.984 69.3196 51.9679 69.2028 51.9979C69.086 52.028 68.9853 52.102 68.9216 52.2044L67.9138 53.8361L66.3959 52.3182L66.3717 52.294C66.2938 52.2161 66.191 52.1682 66.0812 52.1586C65.9715 52.149 65.8618 52.1783 65.7716 52.2415L62.7431 54.3622C62.7378 54.3622 62.7325 54.364 62.7272 54.364C62.5822 54.3882 62.4499 54.4611 62.3519 54.5706C62.254 54.6802 62.1964 54.8198 62.1885 54.9666L62.1104 56.5467H74.2042L73.6194 54.4369Z" fill="#005387"/>
<path d="M80.3692 56.3014H78.0359C78.0359 56.2363 78.01 56.1738 77.9639 56.1277C77.9179 56.0817 77.8554 56.0558 77.7903 56.0558H77.0534C76.9883 56.0558 76.9258 56.0817 76.8798 56.1277C76.8337 56.1738 76.8078 56.2363 76.8078 56.3014H76.071C76.071 56.2363 76.0451 56.1738 75.9991 56.1277C75.953 56.0817 75.8905 56.0558 75.8254 56.0558H75.0885C75.0234 56.0558 74.9609 56.0817 74.9149 56.1277C74.8688 56.1738 74.8429 56.2363 74.8429 56.3014H74.1061C74.1061 56.2363 74.0802 56.1738 74.0342 56.1277C73.9881 56.0817 73.9256 56.0558 73.8605 56.0558H73.1236C73.0585 56.0558 72.996 56.0817 72.95 56.1277C72.9039 56.1738 72.878 56.2363 72.878 56.3014H72.1412C72.1412 56.2363 72.1153 56.1738 72.0693 56.1277C72.0232 56.0817 71.9607 56.0558 71.8956 56.0558H71.1588C71.0936 56.0558 71.0311 56.0817 70.9851 56.1277C70.939 56.1738 70.9131 56.2363 70.9131 56.3014H70.1763C70.1763 56.2363 70.1504 56.1738 70.1044 56.1277C70.0583 56.0817 69.9958 56.0558 69.9307 56.0558H69.1939C69.1287 56.0558 69.0662 56.0817 69.0202 56.1277C68.9741 56.1738 68.9482 56.2363 68.9482 56.3014H68.2114C68.2114 56.2363 68.1855 56.1738 68.1395 56.1277C68.0934 56.0817 68.0309 56.0558 67.9658 56.0558H67.229C67.1638 56.0558 67.1013 56.0817 67.0553 56.1277C67.0092 56.1738 66.9833 56.2363 66.9833 56.3014H66.2465C66.2465 56.2363 66.2206 56.1738 66.1746 56.1277C66.1285 56.0817 66.066 56.0558 66.0009 56.0558H65.2641C65.1989 56.0558 65.1364 56.0817 65.0904 56.1277C65.0443 56.1738 65.0184 56.2363 65.0184 56.3014H64.2816C64.2816 56.2363 64.2557 56.1738 64.2097 56.1277C64.1636 56.0817 64.1011 56.0558 64.036 56.0558H63.2992C63.234 56.0558 63.1715 56.0817 63.1255 56.1277C63.0794 56.1738 63.0535 56.2363 63.0535 56.3014H62.3167C62.3167 56.2363 62.2908 56.1738 62.2448 56.1277C62.1987 56.0817 62.1362 56.0558 62.0711 56.0558H61.3343C61.2691 56.0558 61.2067 56.0817 61.1606 56.1277C61.1145 56.1738 61.0887 56.2363 61.0887 56.3014H60.3518C60.3518 56.2363 60.3259 56.1738 60.2799 56.1277C60.2338 56.0817 60.1713 56.0558 60.1062 56.0558H59.3694C59.3042 56.0558 59.2418 56.0817 59.1957 56.1277C59.1496 56.1738 59.1238 56.2363 59.1238 56.3014H58.3869C58.3869 56.2363 58.361 56.1738 58.315 56.1277C58.2689 56.0817 58.2065 56.0558 58.1413 56.0558H57.4045C57.3393 56.0558 57.2769 56.0817 57.2308 56.1277C57.1847 56.1738 57.1589 56.2363 57.1589 56.3014H54.8255C54.6303 56.3017 54.4432 56.3795 54.3053 56.5176C54.1673 56.6558 54.0898 56.843 54.0898 57.0382C54.0898 57.2335 54.1673 57.4207 54.3053 57.5589C54.4432 57.697 54.6303 57.7748 54.8255 57.7751H80.3692C80.5646 57.7751 80.752 57.6974 80.8902 57.5593C81.0284 57.4211 81.106 57.2337 81.106 57.0382C81.106 56.8428 81.0284 56.6554 80.8902 56.5172C80.752 56.379 80.5646 56.3014 80.3692 56.3014Z" fill="#3F3D56"/>
<path d="M51.027 52.0222V56.9148H38.7692C38.4408 56.9262 38.1135 56.8714 37.8067 56.7536C37.4999 56.6358 37.22 56.4575 36.9836 56.2292C36.7473 56.0009 36.5593 55.7274 36.4309 55.4249C36.3025 55.1224 36.2363 54.7971 36.2363 54.4685C36.2363 54.1399 36.3025 53.8147 36.4309 53.5122C36.5593 53.2097 36.7473 52.9361 36.9836 52.7079C37.22 52.4796 37.4999 52.3012 37.8067 52.1834C38.1135 52.0656 38.4408 52.0108 38.7692 52.0222H51.027Z" fill="#F2F2F2"/>
<path d="M51.3278 56.8773C51.3278 56.9272 51.308 56.975 51.2727 57.0103C51.2374 57.0456 51.1895 57.0654 51.1396 57.0654H38.5507C37.8669 57.0654 37.2112 56.7938 36.7277 56.3104C36.2443 55.8269 35.9727 55.1712 35.9727 54.4874C35.9727 53.8037 36.2443 53.148 36.7277 52.6645C37.2112 52.181 37.8669 51.9094 38.5507 51.9094H51.1396C51.1896 51.9094 51.2374 51.9293 51.2727 51.9645C51.308 51.9998 51.3278 52.0477 51.3278 52.0976C51.3278 52.1475 51.308 52.1954 51.2727 52.2307C51.2374 52.266 51.1896 52.2858 51.1396 52.2858H38.5507C37.9671 52.2863 37.4076 52.5185 36.9951 52.9313C36.5827 53.3442 36.351 53.9039 36.351 54.4874C36.351 55.071 36.5827 55.6307 36.9951 56.0435C37.4076 56.4564 37.9671 56.6886 38.5507 56.6891H51.1396C51.1895 56.6891 51.2374 56.7089 51.2727 56.7442C51.308 56.7795 51.3278 56.8274 51.3278 56.8773Z" fill="#005387"/>
<path d="M51.0266 53.1513H37.8543C37.8493 53.1514 37.8444 53.1504 37.8398 53.1485C37.8352 53.1467 37.831 53.1439 37.8275 53.1404C37.824 53.1369 37.8212 53.1327 37.8193 53.1282C37.8174 53.1236 37.8164 53.1187 37.8164 53.1137C37.8164 53.1087 37.8174 53.1038 37.8193 53.0992C37.8212 53.0946 37.824 53.0905 37.8275 53.087C37.831 53.0835 37.8352 53.0807 37.8398 53.0788C37.8444 53.077 37.8493 53.076 37.8543 53.0761H51.0266C51.0366 53.0761 51.0461 53.0801 51.0531 53.0872C51.0601 53.0942 51.064 53.1038 51.064 53.1137C51.064 53.1236 51.0601 53.1332 51.0531 53.1402C51.0461 53.1473 51.0366 53.1513 51.0266 53.1513Z" fill="#CCCCCC"/>
<path d="M51.0266 54.0546H37.8543C37.8493 54.0547 37.8444 54.0537 37.8398 54.0518C37.8352 54.05 37.831 54.0472 37.8275 54.0437C37.824 54.0402 37.8212 54.036 37.8193 54.0315C37.8174 54.0269 37.8164 54.022 37.8164 54.017C37.8164 54.012 37.8174 54.0071 37.8193 54.0025C37.8212 53.998 37.824 53.9938 37.8275 53.9903C37.831 53.9868 37.8352 53.984 37.8398 53.9822C37.8444 53.9803 37.8493 53.9793 37.8543 53.9794H51.0266C51.0366 53.9794 51.0461 53.9834 51.0531 53.9905C51.0601 53.9975 51.064 54.0071 51.064 54.017C51.064 54.0269 51.0601 54.0365 51.0531 54.0435C51.0461 54.0506 51.0366 54.0546 51.0266 54.0546Z" fill="#CCCCCC"/>
<path d="M51.0266 54.9578H37.8543C37.8493 54.9579 37.8444 54.9569 37.8398 54.955C37.8352 54.9532 37.831 54.9504 37.8275 54.9469C37.824 54.9434 37.8212 54.9392 37.8193 54.9347C37.8174 54.9301 37.8164 54.9252 37.8164 54.9202C37.8164 54.9152 37.8174 54.9103 37.8193 54.9057C37.8212 54.9012 37.824 54.897 37.8275 54.8935C37.831 54.89 37.8352 54.8872 37.8398 54.8854C37.8444 54.8835 37.8493 54.8825 37.8543 54.8826H51.0266C51.0366 54.8826 51.0461 54.8866 51.0531 54.8937C51.0601 54.9007 51.064 54.9103 51.064 54.9202C51.064 54.9301 51.0601 54.9397 51.0531 54.9467C51.0461 54.9538 51.0366 54.9578 51.0266 54.9578Z" fill="#CCCCCC"/>
<path d="M51.0266 55.861H37.8543C37.8493 55.8611 37.8444 55.8601 37.8398 55.8582C37.8352 55.8564 37.831 55.8536 37.8275 55.8501C37.824 55.8466 37.8212 55.8424 37.8193 55.8379C37.8174 55.8333 37.8164 55.8284 37.8164 55.8234C37.8164 55.8184 37.8174 55.8135 37.8193 55.8089C37.8212 55.8044 37.824 55.8002 37.8275 55.7967C37.831 55.7932 37.8352 55.7904 37.8398 55.7886C37.8444 55.7867 37.8493 55.7857 37.8543 55.7858H51.0266C51.0366 55.7858 51.0461 55.7898 51.0531 55.7969C51.0601 55.8039 51.064 55.8135 51.064 55.8234C51.064 55.8333 51.0601 55.8429 51.0531 55.8499C51.0461 55.857 51.0366 55.861 51.0266 55.861Z" fill="#CCCCCC"/>
<path d="M48.7164 46.8677V51.7603H36.4587C36.1303 51.7717 35.8029 51.7169 35.4961 51.5991C35.1894 51.4813 34.9094 51.3029 34.6731 51.0747C34.4367 50.8464 34.2487 50.5728 34.1203 50.2703C33.9919 49.9678 33.9258 49.6426 33.9258 49.314C33.9258 48.9854 33.9919 48.6601 34.1203 48.3576C34.2487 48.0551 34.4367 47.7816 34.6731 47.5533C34.9094 47.325 35.1894 47.1467 35.4961 47.0289C35.8029 46.9111 36.1303 46.8563 36.4587 46.8677H48.7164Z" fill="#F2F2F2"/>
<path d="M49.0173 51.7226C49.0173 51.7725 48.9974 51.8204 48.9621 51.8556C48.9269 51.8909 48.879 51.9108 48.8291 51.9108H36.2401C35.9016 51.9108 35.5663 51.8441 35.2536 51.7145C34.9408 51.585 34.6566 51.3951 34.4172 51.1557C34.1778 50.9163 33.9879 50.6321 33.8583 50.3193C33.7288 50.0066 33.6621 49.6713 33.6621 49.3328C33.6621 48.9942 33.7288 48.659 33.8583 48.3462C33.9879 48.0334 34.1778 47.7492 34.4172 47.5098C34.6566 47.2705 34.9408 47.0806 35.2536 46.951C35.5663 46.8214 35.9016 46.7548 36.2401 46.7548H48.8291C48.879 46.7548 48.9269 46.7746 48.9622 46.8099C48.9974 46.8452 49.0173 46.893 49.0173 46.9429C49.0173 46.9928 48.9974 47.0407 48.9622 47.076C48.9269 47.1113 48.879 47.1311 48.8291 47.1311H36.2401C35.6565 47.1316 35.0971 47.3638 34.6846 47.7767C34.2721 48.1895 34.0404 48.7492 34.0404 49.3328C34.0404 49.9163 34.2721 50.476 34.6846 50.8889C35.0971 51.3017 35.6565 51.5339 36.2401 51.5344H48.8291C48.879 51.5345 48.9268 51.5543 48.9621 51.5896C48.9974 51.6249 49.0173 51.6727 49.0173 51.7226Z" fill="#3F3D56"/>
<path d="M48.7161 47.9967H35.5438C35.5388 47.9967 35.5339 47.9957 35.5293 47.9939C35.5247 47.992 35.5205 47.9892 35.517 47.9857C35.5135 47.9822 35.5107 47.9781 35.5088 47.9735C35.5068 47.9689 35.5059 47.964 35.5059 47.959C35.5059 47.9541 35.5068 47.9491 35.5088 47.9446C35.5107 47.94 35.5135 47.9358 35.517 47.9323C35.5205 47.9288 35.5247 47.9261 35.5293 47.9242C35.5339 47.9223 35.5388 47.9214 35.5438 47.9214H48.7161C48.726 47.9215 48.7355 47.9255 48.7425 47.9325C48.7495 47.9396 48.7535 47.9491 48.7535 47.959C48.7535 47.969 48.7495 47.9785 48.7425 47.9855C48.7355 47.9926 48.726 47.9966 48.7161 47.9967Z" fill="#CCCCCC"/>
<path d="M48.7161 48.9H35.5438C35.5388 48.9 35.5339 48.8991 35.5293 48.8972C35.5247 48.8953 35.5205 48.8925 35.517 48.889C35.5135 48.8855 35.5107 48.8814 35.5088 48.8768C35.5068 48.8722 35.5059 48.8673 35.5059 48.8623C35.5059 48.8574 35.5068 48.8525 35.5088 48.8479C35.5107 48.8433 35.5135 48.8391 35.517 48.8356C35.5205 48.8321 35.5247 48.8294 35.5293 48.8275C35.5339 48.8256 35.5388 48.8247 35.5438 48.8247H48.7161C48.726 48.8248 48.7355 48.8288 48.7425 48.8358C48.7495 48.8429 48.7535 48.8524 48.7535 48.8623C48.7535 48.8723 48.7495 48.8818 48.7425 48.8889C48.7355 48.8959 48.726 48.8999 48.7161 48.9Z" fill="#CCCCCC"/>
<path d="M48.7161 49.8032H35.5438C35.5388 49.8032 35.5339 49.8023 35.5293 49.8004C35.5247 49.7985 35.5205 49.7957 35.517 49.7922C35.5135 49.7887 35.5107 49.7846 35.5088 49.78C35.5068 49.7754 35.5059 49.7705 35.5059 49.7655C35.5059 49.7606 35.5068 49.7557 35.5088 49.7511C35.5107 49.7465 35.5135 49.7423 35.517 49.7388C35.5205 49.7353 35.5247 49.7326 35.5293 49.7307C35.5339 49.7288 35.5388 49.7279 35.5438 49.7279H48.7161C48.726 49.728 48.7355 49.732 48.7425 49.739C48.7495 49.7461 48.7535 49.7556 48.7535 49.7655C48.7535 49.7755 48.7495 49.785 48.7425 49.7921C48.7355 49.7991 48.726 49.8031 48.7161 49.8032Z" fill="#CCCCCC"/>
<path d="M48.7161 50.7065H35.5438C35.5388 50.7065 35.5339 50.7056 35.5293 50.7037C35.5247 50.7018 35.5205 50.6991 35.517 50.6956C35.5135 50.6921 35.5107 50.6879 35.5088 50.6833C35.5068 50.6787 35.5059 50.6738 35.5059 50.6689C35.5059 50.6639 35.5068 50.659 35.5088 50.6544C35.5107 50.6498 35.5135 50.6457 35.517 50.6422C35.5205 50.6387 35.5247 50.6359 35.5293 50.634C35.5339 50.6321 35.5388 50.6312 35.5438 50.6312H48.7161C48.726 50.6313 48.7355 50.6353 48.7425 50.6423C48.7495 50.6494 48.7535 50.6589 48.7535 50.6689C48.7535 50.6788 48.7495 50.6883 48.7425 50.6954C48.7355 50.7024 48.726 50.7064 48.7161 50.7065Z" fill="#CCCCCC"/>
<path d="M62.9757 74.3054V70.0395C62.9757 69.8509 62.9008 69.6701 62.7675 69.5367C62.6341 69.4034 62.4533 69.3285 62.2647 69.3285H46.0899C45.9013 69.3285 45.7205 69.4034 45.5871 69.5367C45.4538 69.6701 45.3789 69.8509 45.3789 70.0395V74.3054H62.9757Z" fill="#CCCCCC"/>
<path d="M62.9757 75.905H45.3789V81.4151H62.9757V75.905Z" fill="#CCCCCC"/>
<path d="M45.3789 83.0149V87.2808C45.3789 87.4694 45.4538 87.6502 45.5871 87.7835C45.7205 87.9169 45.9013 87.9918 46.0899 87.9918H62.2647C62.4533 87.9918 62.6341 87.9169 62.7675 87.7835C62.9008 87.6502 62.9757 87.4694 62.9757 87.2808V83.0149H45.3789Z" fill="#CCCCCC"/>
<path d="M54.0889 72.5279C54.3834 72.5279 54.6221 72.2892 54.6221 71.9947C54.6221 71.7002 54.3834 71.4614 54.0889 71.4614C53.7944 71.4614 53.5557 71.7002 53.5557 71.9947C53.5557 72.2892 53.7944 72.5279 54.0889 72.5279Z" fill="white"/>
<path d="M54.0889 79.6378C54.3834 79.6378 54.6221 79.399 54.6221 79.1045C54.6221 78.81 54.3834 78.5713 54.0889 78.5713C53.7944 78.5713 53.5557 78.81 53.5557 79.1045C53.5557 79.399 53.7944 79.6378 54.0889 79.6378Z" fill="white"/>
<path d="M54.1172 86.597C54.4117 86.597 54.6505 86.3583 54.6505 86.0638C54.6505 85.7693 54.4117 85.5305 54.1172 85.5305C53.8227 85.5305 53.584 85.7693 53.584 86.0638C53.584 86.3583 53.8227 86.597 54.1172 86.597Z" fill="white"/>
<path d="M60.9811 64.4645V69.3571H48.7233C48.3949 69.3685 48.0676 69.3137 47.7608 69.1959C47.454 69.0781 47.1741 68.8997 46.9377 68.6715C46.7014 68.4432 46.5134 68.1696 46.385 67.8671C46.2566 67.5646 46.1904 67.2394 46.1904 66.9108C46.1904 66.5822 46.2566 66.2569 46.385 65.9544C46.5134 65.6519 46.7014 65.3784 46.9377 65.1501C47.1741 64.9218 47.454 64.7435 47.7608 64.6257C48.0676 64.5079 48.3949 64.4531 48.7233 64.4645H60.9811Z" fill="#F2F2F2"/>
<path d="M61.2821 69.3194C61.2821 69.3693 61.2623 69.4172 61.227 69.4525C61.1917 69.4877 61.1438 69.5076 61.0939 69.5076H48.505C48.1662 69.5079 47.8308 69.4414 47.5177 69.312C47.2047 69.1825 46.9203 68.9927 46.6806 68.7533C46.441 68.5138 46.2509 68.2296 46.1212 67.9166C45.9916 67.6037 45.9248 67.2683 45.9248 66.9296C45.9248 66.5908 45.9916 66.2554 46.1212 65.9425C46.2509 65.6296 46.441 65.3453 46.6806 65.1059C46.9203 64.8665 47.2047 64.6766 47.5177 64.5472C47.8308 64.4178 48.1662 64.3513 48.505 64.3516H61.0939C61.1438 64.3516 61.1917 64.3714 61.227 64.4067C61.2623 64.442 61.2821 64.4898 61.2821 64.5397C61.2821 64.5896 61.2623 64.6375 61.227 64.6728C61.1917 64.7081 61.1438 64.7279 61.0939 64.7279H48.505C47.9214 64.7284 47.3619 64.9606 46.9494 65.3735C46.537 65.7863 46.3053 66.346 46.3053 66.9296C46.3053 67.5131 46.537 68.0728 46.9494 68.4857C47.3619 68.8985 47.9214 69.1307 48.505 69.1312H61.0939C61.1438 69.1313 61.1917 69.1511 61.227 69.1864C61.2623 69.2217 61.2821 69.2695 61.2821 69.3194Z" fill="#3F3D56"/>
<path d="M60.9807 65.5936H47.8084C47.8034 65.5936 47.7985 65.5927 47.7939 65.5908C47.7893 65.5889 47.7851 65.5862 47.7816 65.5827C47.7781 65.5792 47.7753 65.575 47.7734 65.5704C47.7715 65.5658 47.7705 65.5609 47.7705 65.5559C47.7705 65.551 47.7715 65.5461 47.7734 65.5415C47.7753 65.5369 47.7781 65.5327 47.7816 65.5292C47.7851 65.5257 47.7893 65.523 47.7939 65.5211C47.7985 65.5192 47.8034 65.5183 47.8084 65.5183H60.9807C60.9907 65.5184 61.0002 65.5224 61.0072 65.5294C61.0142 65.5365 61.0181 65.546 61.0181 65.5559C61.0181 65.5659 61.0142 65.5754 61.0072 65.5825C61.0002 65.5895 60.9907 65.5935 60.9807 65.5936Z" fill="#CCCCCC"/>
<path d="M60.9807 66.4968H47.8084C47.8034 66.4968 47.7985 66.4959 47.7939 66.494C47.7893 66.4921 47.7851 66.4893 47.7816 66.4858C47.7781 66.4823 47.7753 66.4782 47.7734 66.4736C47.7715 66.469 47.7705 66.4641 47.7705 66.4591C47.7705 66.4542 47.7715 66.4493 47.7734 66.4447C47.7753 66.4401 47.7781 66.4359 47.7816 66.4324C47.7851 66.4289 47.7893 66.4262 47.7939 66.4243C47.7985 66.4224 47.8034 66.4215 47.8084 66.4215H60.9807C60.9907 66.4216 61.0002 66.4256 61.0072 66.4326C61.0142 66.4397 61.0181 66.4492 61.0181 66.4591C61.0181 66.4691 61.0142 66.4786 61.0072 66.4857C61.0002 66.4927 60.9907 66.4967 60.9807 66.4968Z" fill="#CCCCCC"/>
<path d="M60.9807 67.4001H47.8084C47.8034 67.4001 47.7985 67.3992 47.7939 67.3973C47.7893 67.3954 47.7851 67.3927 47.7816 67.3892C47.7781 67.3857 47.7753 67.3815 47.7734 67.3769C47.7715 67.3723 47.7705 67.3674 47.7705 67.3625C47.7705 67.3575 47.7715 67.3526 47.7734 67.348C47.7753 67.3434 47.7781 67.3393 47.7816 67.3358C47.7851 67.3323 47.7893 67.3295 47.7939 67.3276C47.7985 67.3257 47.8034 67.3248 47.8084 67.3248H60.9807C60.9907 67.3249 61.0002 67.3289 61.0072 67.3359C61.0142 67.343 61.0181 67.3525 61.0181 67.3625C61.0181 67.3724 61.0142 67.3819 61.0072 67.389C61.0002 67.396 60.9907 67.4 60.9807 67.4001Z" fill="#CCCCCC"/>
<path d="M60.9807 68.3033H47.8084C47.8034 68.3033 47.7985 68.3024 47.7939 68.3005C47.7893 68.2986 47.7851 68.2959 47.7816 68.2924C47.7781 68.2889 47.7753 68.2847 47.7734 68.2801C47.7715 68.2755 47.7705 68.2706 47.7705 68.2657C47.7705 68.2607 47.7715 68.2558 47.7734 68.2512C47.7753 68.2466 47.7781 68.2425 47.7816 68.239C47.7851 68.2355 47.7893 68.2327 47.7939 68.2308C47.7985 68.2289 47.8034 68.228 47.8084 68.228H60.9807C60.9907 68.2281 61.0002 68.2321 61.0072 68.2391C61.0142 68.2462 61.0181 68.2557 61.0181 68.2657C61.0181 68.2756 61.0142 68.2851 61.0072 68.2922C61.0002 68.2992 60.9907 68.3032 60.9807 68.3033Z" fill="#CCCCCC"/>
<path d="M44.4561 32.5313V1.3369C44.4565 0.982458 44.5974 0.642647 44.8481 0.392016C45.0987 0.141386 45.4385 0.000403169 45.793 0H70.4514C70.8058 0.000405517 71.1456 0.141389 71.3962 0.392019C71.6469 0.642649 71.7879 0.982459 71.7883 1.3369V32.5313C71.7879 32.8857 71.6469 33.2255 71.3962 33.4762C71.1456 33.7268 70.8058 33.8678 70.4514 33.8682H45.793C45.4385 33.8678 45.0987 33.7268 44.8481 33.4762C44.5974 33.2255 44.4565 32.8857 44.4561 32.5313ZM45.793 0.29709C45.5173 0.297398 45.253 0.40705 45.058 0.601985C44.8631 0.796921 44.7535 1.06122 44.7531 1.3369V32.5313C44.7535 32.8069 44.8631 33.0712 45.058 33.2662C45.253 33.4611 45.5173 33.5708 45.793 33.5711H70.4514C70.727 33.5708 70.9913 33.4611 71.1863 33.2662C71.3812 33.0712 71.4909 32.8069 71.4912 32.5313V1.3369C71.4909 1.06122 71.3812 0.796921 71.1863 0.601985C70.9913 0.40705 70.727 0.297399 70.4514 0.29709H45.793Z" fill="#E6E6E6"/>
<path d="M59.5049 14.3258V7.92065C59.5051 7.74343 59.5756 7.57352 59.7009 7.4482C59.8262 7.32288 59.9961 7.25239 60.1733 7.2522H65.6011C65.7784 7.25239 65.9483 7.32288 66.0736 7.4482C66.1989 7.57352 66.2694 7.74343 66.2696 7.92065V14.3258C66.2694 14.5031 66.1989 14.673 66.0736 14.7983C65.9483 14.9236 65.7784 14.9941 65.6011 14.9943H60.1733C59.9961 14.9941 59.8262 14.9236 59.7009 14.7983C59.5756 14.673 59.5051 14.5031 59.5049 14.3258Z" fill="#005387"/>
<path d="M48.958 17.2968V10.8916C48.9582 10.7144 49.0287 10.5445 49.154 10.4191C49.2793 10.2938 49.4492 10.2233 49.6265 10.2231H55.0543C55.2315 10.2233 55.4014 10.2938 55.5267 10.4191C55.652 10.5445 55.7225 10.7144 55.7227 10.8916V17.2968C55.7225 17.474 55.652 17.6439 55.5267 17.7692C55.4014 17.8945 55.2315 17.965 55.0543 17.9652H49.6265C49.4492 17.965 49.2793 17.8945 49.154 17.7692C49.0287 17.6439 48.9582 17.474 48.958 17.2968Z" fill="#CCCCCC"/>
<path d="M57.4248 26.3579V19.9528C57.425 19.7755 57.4955 19.6056 57.6208 19.4803C57.7461 19.355 57.916 19.2845 58.0932 19.2843H63.5211C63.6983 19.2845 63.8682 19.355 63.9935 19.4803C64.1188 19.6056 64.1893 19.7755 64.1895 19.9528V26.3579C64.1893 26.5352 64.1188 26.7051 63.9935 26.8304C63.8682 26.9557 63.6983 27.0262 63.5211 27.0264H58.0932C57.916 27.0262 57.7461 26.9557 57.6208 26.8304C57.4955 26.7051 57.425 26.5352 57.4248 26.3579Z" fill="#FF6584"/>
<path d="M89.8611 55.6421H84.2764C84.2234 55.642 84.1711 55.6542 84.1236 55.6776L82.714 56.3833C82.6676 56.403 82.6281 56.4359 82.6003 56.478C82.5724 56.52 82.5576 56.5693 82.5576 56.6197C82.5576 56.6701 82.5724 56.7194 82.6003 56.7614C82.6281 56.8035 82.6676 56.8364 82.714 56.8561L84.1236 57.5617C84.1711 57.5852 84.2234 57.5973 84.2764 57.5973H89.8611C89.9381 57.6017 90.0137 57.5757 90.0716 57.5248C90.1295 57.4739 90.165 57.4022 90.1705 57.3253V55.914C90.165 55.8371 90.1295 55.7655 90.0716 55.7146C90.0137 55.6637 89.9381 55.6376 89.8611 55.6421Z" fill="#3F3D56"/>
<path d="M90.171 55.9141V57.3253C90.1656 57.4022 90.13 57.4739 90.0721 57.5248C90.0143 57.5757 89.9386 57.6017 89.8617 57.5973H88.749V55.6421H89.8617C89.9386 55.6376 90.0143 55.6637 90.0721 55.7146C90.13 55.7655 90.1656 55.8372 90.171 55.9141Z" fill="#005387"/>
<path d="M89.8203 45.0839C90.0732 44.9747 90.3464 44.9202 90.6219 44.924C90.8974 44.9278 91.169 44.9897 91.4188 45.1057C91.6687 45.2218 91.8913 45.3893 92.0719 45.5973C92.2525 45.8054 92.3872 46.0492 92.467 46.3129C92.4918 46.3965 92.5109 46.4818 92.5239 46.568L100.334 50.4407L102.141 49.243L104.39 51.8319L101.63 54.0733C101.298 54.3407 100.889 54.494 100.463 54.5104C100.037 54.5269 99.6174 54.4055 99.2659 54.1645L91.3422 48.6849C91.2832 48.7099 91.223 48.7318 91.1618 48.7507C90.8981 48.8304 90.6204 48.8536 90.3471 48.8186C90.0738 48.7835 89.811 48.6912 89.5759 48.5475C89.3408 48.4039 89.1387 48.2121 88.9828 47.9849C88.8269 47.7577 88.7209 47.5001 88.6715 47.229C88.6569 47.1503 88.6472 47.0708 88.6426 46.9909C88.6206 46.5908 88.7217 46.1936 88.9322 45.8527C89.1428 45.5117 89.4527 45.2434 89.8203 45.0839Z" fill="#FFB8B8"/>
<path d="M106.086 68.9282H97.5526C97.5526 69.1735 88.7577 69.3726 88.7577 69.3726C88.6197 69.4765 88.4939 69.5958 88.3827 69.7281C88.0487 70.1265 87.8661 70.6301 87.8672 71.15V71.5055C87.8674 72.0947 88.1016 72.6597 88.5182 73.0764C88.9348 73.493 89.4998 73.7271 90.089 73.7274H106.086C106.675 73.7268 107.24 73.4926 107.657 73.076C108.073 72.6595 108.307 72.0946 108.308 71.5055V71.15C108.307 70.561 108.073 69.9964 107.656 69.5799C107.24 69.1634 106.675 68.929 106.086 68.9282Z" fill="#3F3D56"/>
<path d="M96.8036 88.5698H99.1143V73.6392H96.8036V88.5698Z" fill="#3F3D56"/>
<path d="M90.2266 88.4886C90.2266 88.7382 93.7281 88.5851 98.0474 88.5851C102.367 88.5851 105.868 88.7382 105.868 88.4886C105.868 88.2389 102.367 86.259 98.0474 86.259C93.7281 86.259 90.2266 88.2389 90.2266 88.4886Z" fill="#3F3D56"/>
<path d="M92.3125 86.7386L90.1335 86.7384L89.0967 81.0867L92.3128 81.0868L92.3125 86.7386Z" fill="#FFB8B8"/>
<path d="M92.8682 88.8509L85.8418 88.8507V88.7618C85.8418 88.4027 85.9125 88.047 86.05 87.7152C86.1874 87.3834 86.3889 87.0819 86.6428 86.828C86.8968 86.574 87.1983 86.3726 87.5301 86.2351C87.8619 86.0977 88.2175 86.027 88.5767 86.027H88.5769L92.8683 86.0272L92.8682 88.8509Z" fill="#2F2E41"/>
<path d="M89.054 83.2339L84.7097 73.4921C84.347 72.671 84.3069 71.7434 84.5974 70.8941C84.8879 70.0448 85.4876 69.336 86.2772 68.909L95.7001 63.8561L100 63.4904L103.966 63.1299L103.995 63.1783C104.031 63.2401 104.884 64.7131 104.308 66.3283C103.871 67.5534 102.733 68.5103 100.927 69.1725C96.7122 70.7181 91.8429 72.0391 89.9451 72.5351C89.8612 72.5566 89.7828 72.5955 89.7151 72.6495C89.6473 72.7034 89.5918 72.771 89.552 72.8479C89.5122 72.924 89.4885 73.0074 89.4825 73.093C89.4765 73.1786 89.4883 73.2646 89.5171 73.3454L93.5531 82.413C93.5953 82.528 93.6105 82.6512 93.5975 82.773C93.5845 82.8948 93.5438 83.012 93.4783 83.1155C93.4129 83.2191 93.3246 83.3062 93.2202 83.3702C93.1157 83.4342 92.998 83.4734 92.876 83.4847L89.8603 83.7043C89.8347 83.7067 89.8092 83.7079 89.7838 83.7079C89.6294 83.7079 89.4783 83.6631 89.3487 83.579C89.2192 83.4948 89.1168 83.375 89.054 83.2339Z" fill="#2F2E41"/>
<path d="M93.3789 86.7386L91.1999 86.7384L90.1631 81.0867L93.3792 81.0868L93.3789 86.7386Z" fill="#FFB8B8"/>
<path d="M93.9346 88.8509L86.9082 88.8507V88.7618C86.9082 88.4027 86.9789 88.047 87.1164 87.7152C87.2538 87.3834 87.4553 87.0819 87.7092 86.828C87.9632 86.574 88.2647 86.3726 88.5965 86.2351C88.9283 86.0977 89.2839 86.027 89.6431 86.027H89.6433L93.9347 86.0272L93.9346 88.8509Z" fill="#2F2E41"/>
<path d="M90.2981 83.7671L85.9539 74.0253C85.5912 73.2042 85.551 72.2766 85.8415 71.4273C86.132 70.578 86.7318 69.8692 87.5213 69.4423L96.9442 64.3893L101.244 64.0236L105.21 63.6631L105.239 63.7115C105.276 63.7733 106.128 65.2463 105.552 66.8615C105.115 68.0866 103.977 69.0435 102.171 69.7057C97.9563 71.2513 93.087 72.5723 91.1892 73.0683C91.1053 73.0898 91.0269 73.1287 90.9592 73.1827C90.8915 73.2366 90.8359 73.3042 90.7962 73.3811C90.7563 73.4572 90.7327 73.5406 90.7267 73.6262C90.7207 73.7118 90.7324 73.7978 90.7613 73.8786L94.7973 82.9462C94.8394 83.0612 94.8546 83.1844 94.8416 83.3062C94.8287 83.428 94.7879 83.5452 94.7225 83.6487C94.6571 83.7523 94.5687 83.8394 94.4643 83.9034C94.3599 83.9674 94.2421 84.0066 94.1202 84.0179L91.1044 84.2375C91.0788 84.2399 91.0534 84.2411 91.028 84.2411C90.8735 84.2411 90.7224 84.1963 90.5929 84.1122C90.4634 84.028 90.361 83.9082 90.2981 83.7671Z" fill="#2F2E41"/>
<path d="M88.1329 54.007C86.3073 51.5788 84.8642 48.8854 83.8536 46.0206C83.795 45.8492 83.7992 45.6626 83.8653 45.494C83.9315 45.3255 84.0553 45.1858 84.2147 45.1L90.4616 41.7527C90.5627 41.6982 90.6749 41.6674 90.7896 41.6627C90.9044 41.6581 91.0187 41.6797 91.1238 41.7259C91.2309 41.7724 91.326 41.8428 91.4018 41.9316C91.4776 42.0204 91.5322 42.1254 91.5613 42.2385C92.2884 44.9991 93.6551 47.5499 95.5509 49.6844C95.629 49.7712 95.6862 49.8748 95.7181 49.9871C95.7501 50.0994 95.756 50.2176 95.7355 50.3325C95.7157 50.4457 95.6704 50.5528 95.6029 50.6457C95.5355 50.7387 95.4477 50.8151 95.3463 50.869L89.0994 54.2162C88.9396 54.3014 88.7548 54.3272 88.5778 54.2889C88.4008 54.2505 88.2431 54.1507 88.1329 54.007Z" fill="#CCCCCC"/>
<path d="M88.5584 53.6867C88.592 53.7286 88.6392 53.7575 88.6918 53.7684C88.7444 53.7793 88.7992 53.7714 88.8467 53.7462L95.0936 50.3989C95.124 50.3831 95.1502 50.3605 95.1704 50.3328C95.1905 50.3052 95.2039 50.2732 95.2096 50.2395C95.2162 50.2039 95.2143 50.1672 95.2043 50.1324C95.1943 50.0977 95.1763 50.0657 95.1519 50.039C93.2002 47.8416 91.7932 45.2157 91.0447 42.3737C91.0361 42.3386 91.0194 42.306 90.996 42.2784C90.9726 42.2508 90.9432 42.229 90.91 42.2146C90.8787 42.2006 90.8446 42.1941 90.8103 42.1955C90.7761 42.1969 90.7426 42.2063 90.7126 42.2228L84.4658 45.57C84.4185 45.5956 84.3816 45.6369 84.3615 45.6867C84.3414 45.7366 84.3393 45.792 84.3557 45.8432C85.3482 48.6568 86.7655 51.3019 88.5584 53.6867Z" fill="#005387"/>
<path d="M108.886 53.1141L103.993 54.9732L102.799 51.6553C102.64 51.2147 102.643 50.7323 102.805 50.2932C102.968 49.8541 103.281 49.4867 103.688 49.2558C104.1 49.0223 104.582 48.9438 105.047 49.0346C105.512 49.1254 105.929 49.3794 106.223 49.7508L108.886 53.1141Z" fill="#005387"/>
<path d="M96.4416 66.2602C96.3387 66.1874 96.2524 66.0935 96.1885 65.9847C96.1247 65.876 96.0847 65.7548 96.0713 65.6294C95.4447 59.7799 95.8812 55.2022 97.4054 51.6347C97.6739 51.0194 98.0784 50.4729 98.5884 50.0364C99.0984 49.5998 99.7008 49.2846 100.35 49.1143L104.305 48.9147L104.325 48.9246C105.218 49.3617 105.946 50.0747 106.401 50.958C106.856 51.8413 107.015 52.8478 106.853 53.8283C105.581 57.1811 104.516 60.672 105.328 63.4881C105.362 63.6058 105.372 63.7292 105.357 63.8509C105.342 63.9725 105.303 64.09 105.242 64.1961C105.183 64.2987 105.103 64.3881 105.008 64.4586C104.912 64.5292 104.804 64.5796 104.688 64.6065L97.1556 66.3984C97.0336 66.4274 96.9068 66.4301 96.7837 66.4063C96.6606 66.3825 96.544 66.3327 96.4416 66.2602Z" fill="#005387"/>
<path d="M102.985 47.4375C105.396 47.4375 107.35 45.483 107.35 43.0719C107.35 40.6609 105.396 38.7063 102.985 38.7063C100.574 38.7063 98.6191 40.6609 98.6191 43.0719C98.6191 45.483 100.574 47.4375 102.985 47.4375Z" fill="#FFB8B8"/>
<path d="M90.8706 46.5296L87.4683 48.0315C87.3389 48.0884 87.1922 48.0917 87.0604 48.0407C86.9285 47.9896 86.8224 47.8883 86.7651 47.759L86.681 47.5684C86.624 47.439 86.6207 47.2923 86.6718 47.1605C86.7229 47.0286 86.8242 46.9224 86.9535 46.8652L90.3558 45.3633C90.4852 45.3064 90.6319 45.3031 90.7637 45.3542C90.8955 45.4053 91.0017 45.5066 91.059 45.6358L91.1431 45.8265C91.2001 45.9559 91.2033 46.1026 91.1523 46.2344C91.1012 46.3662 90.9999 46.4724 90.8706 46.5296Z" fill="white"/>
<path d="M92.1157 48.8403L88.7134 50.3422C88.584 50.3991 88.4373 50.4024 88.3055 50.3513C88.1737 50.3002 88.0675 50.199 88.0102 50.0697L87.9261 49.879C87.8691 49.7496 87.8658 49.6029 87.9169 49.4711C87.968 49.3393 88.0693 49.2331 88.1986 49.1759L91.6009 47.674C91.7303 47.6171 91.877 47.6138 92.0088 47.6649C92.1407 47.7159 92.2468 47.8172 92.3041 47.9465L92.3882 48.1371C92.4452 48.2665 92.4485 48.4132 92.3974 48.5451C92.3463 48.6769 92.245 48.7831 92.1157 48.8403Z" fill="white"/>
<path d="M94.7394 57.8658L87.1543 51.8818C87.0938 51.903 87.0324 51.9212 86.9701 51.9361C86.7024 51.9987 86.4245 52.0043 86.1544 51.9525C85.8844 51.9007 85.6283 51.7927 85.4028 51.6355C85.1757 51.4781 84.9849 51.2741 84.8431 51.037C84.7013 50.8 84.6117 50.5353 84.5804 50.2609C84.5296 49.8221 84.6284 49.379 84.861 49.0035C85.0936 48.628 85.4463 48.3421 85.8618 48.1922C86.1211 48.0992 86.3972 48.062 86.6719 48.0831C86.9466 48.1042 87.2137 48.1831 87.4558 48.3146C87.6979 48.4462 87.9095 48.6273 88.0767 48.8463C88.2439 49.0653 88.3629 49.3171 88.426 49.5853C88.4455 49.6703 88.4591 49.7565 88.4667 49.8434L96.0176 54.1995L97.8967 53.1177L99.9782 55.8429L97.0607 57.9223C96.7192 58.1638 96.3089 58.2887 95.8907 58.2785C95.4726 58.2683 95.0688 58.1235 94.7394 57.8658Z" fill="#FFB8B8"/>
<path d="M100.904 56.6914L96.5762 53.7484L98.6101 50.8677C98.8802 50.4852 99.2768 50.2105 99.7298 50.0921C100.183 49.9737 100.663 50.0193 101.086 50.2207C101.513 50.4245 101.854 50.7745 102.046 51.2075C102.238 51.6405 102.269 52.1279 102.134 52.5817L100.904 56.6914Z" fill="#005387"/>
<path d="M101.384 42.4217C100.262 43.1896 98.7889 43.979 97.6429 43.1612C96.8904 42.6242 96.6534 41.6298 96.9585 40.7572C97.5072 39.188 99.0149 38.4971 100.457 37.9676C102.331 37.2792 104.372 36.7315 106.306 37.2245C108.241 37.7175 109.951 39.5908 109.602 41.5567C109.321 43.1376 107.83 44.453 108.042 46.0447C108.255 47.6466 110.056 48.4897 111.646 48.776C113.237 49.0623 115.017 49.1543 116.16 50.2967C117.618 51.754 117.254 54.3587 115.882 55.8974C114.51 57.436 112.439 58.1334 110.433 58.6076C107.775 59.2357 104.9 59.5659 102.375 58.5233C99.8508 57.4808 97.8863 54.6744 98.6176 52.0428C98.9265 50.9312 99.6542 49.9918 100.357 49.0772C101.061 48.1626 101.773 47.2062 102.041 46.0841C102.265 45.1491 102.099 44.0634 101.479 43.362C101.366 43.2392 101.295 43.0839 101.276 42.9182C101.257 42.7526 101.291 42.5852 101.374 42.4401L101.384 42.4217Z" fill="#2F2E41"/>
<path d="M23.027 79.3385C22.9661 78.633 22.7127 77.9576 22.2946 77.386C21.8764 76.8145 21.3094 76.3686 20.6553 76.097V74.2483H17.5546V76.1553C16.9327 76.4402 16.3976 76.885 16.0036 77.4442C15.6097 78.0034 15.3711 78.6571 15.3121 79.3385L14.583 87.8141H23.7561L23.027 79.3385Z" fill="#F2F2F2"/>
</svg>
