<svg width="103" height="77" viewBox="0 0 103 77" fill="none" xmlns="http://www.w3.org/2000/svg">
<path d="M42.9967 74.8398C42.9968 74.8398 42.9957 74.8408 42.993 74.8429C42.9953 74.8408 42.9966 74.8398 42.9967 74.8398ZM41.6093 74.9264C41.8878 74.9764 42.1268 75.0265 42.3268 75.0758C42.1268 75.1252 41.8878 75.1753 41.6093 75.2253C40.5362 75.418 38.9669 75.594 37.009 75.7427C33.0979 76.0398 27.6858 76.2241 21.7016 76.2241C15.7173 76.2241 10.3052 76.0398 6.3941 75.7427C4.43616 75.594 2.86692 75.418 1.79378 75.2253C1.5153 75.1753 1.27634 75.1252 1.07633 75.0758C1.27634 75.0265 1.5153 74.9764 1.79378 74.9264C2.86692 74.7337 4.43616 74.5576 6.3941 74.4089C10.3052 74.1119 15.7173 73.9276 21.7016 73.9276C27.6858 73.9276 33.0979 74.1119 37.009 74.4089C38.9669 74.5576 40.5362 74.7337 41.6093 74.9264ZM0.406363 74.8398C0.406464 74.8398 0.407844 74.8408 0.410198 74.843C0.407439 74.8409 0.406262 74.8398 0.406363 74.8398ZM0.406363 75.3119C0.406262 75.3119 0.407439 75.3108 0.410195 75.3087C0.407842 75.3108 0.406464 75.3119 0.406363 75.3119ZM42.993 75.3087C42.9957 75.3108 42.9968 75.3119 42.9967 75.3119C42.9966 75.3119 42.9953 75.3108 42.993 75.3087Z" fill="#E6E6E6"/>
<path d="M42.9967 74.8398C42.9968 74.8398 42.9957 74.8408 42.993 74.8429C42.9953 74.8408 42.9966 74.8398 42.9967 74.8398ZM41.6093 74.9264C41.8878 74.9764 42.1268 75.0265 42.3268 75.0758C42.1268 75.1252 41.8878 75.1753 41.6093 75.2253C40.5362 75.418 38.9669 75.594 37.009 75.7427C33.0979 76.0398 27.6858 76.2241 21.7016 76.2241C15.7173 76.2241 10.3052 76.0398 6.3941 75.7427C4.43616 75.594 2.86692 75.418 1.79378 75.2253C1.5153 75.1753 1.27634 75.1252 1.07633 75.0758C1.27634 75.0265 1.5153 74.9764 1.79378 74.9264C2.86692 74.7337 4.43616 74.5576 6.3941 74.4089C10.3052 74.1119 15.7173 73.9276 21.7016 73.9276C27.6858 73.9276 33.0979 74.1119 37.009 74.4089C38.9669 74.5576 40.5362 74.7337 41.6093 74.9264ZM0.406363 74.8398C0.406464 74.8398 0.407844 74.8408 0.410198 74.843C0.407439 74.8409 0.406262 74.8398 0.406363 74.8398ZM0.406363 75.3119C0.406262 75.3119 0.407439 75.3108 0.410195 75.3087C0.407842 75.3108 0.406464 75.3119 0.406363 75.3119ZM42.993 75.3087C42.9957 75.3108 42.9968 75.3119 42.9967 75.3119C42.9966 75.3119 42.9953 75.3108 42.993 75.3087Z" stroke="black"/>
<path d="M42.9967 74.8398C42.9968 74.8398 42.9957 74.8408 42.993 74.8429C42.9953 74.8408 42.9966 74.8398 42.9967 74.8398ZM41.6093 74.9264C41.8878 74.9764 42.1268 75.0265 42.3268 75.0758C42.1268 75.1252 41.8878 75.1753 41.6093 75.2253C40.5362 75.418 38.9669 75.594 37.009 75.7427C33.0979 76.0398 27.6858 76.2241 21.7016 76.2241C15.7173 76.2241 10.3052 76.0398 6.3941 75.7427C4.43616 75.594 2.86692 75.418 1.79378 75.2253C1.5153 75.1753 1.27634 75.1252 1.07633 75.0758C1.27634 75.0265 1.5153 74.9764 1.79378 74.9264C2.86692 74.7337 4.43616 74.5576 6.3941 74.4089C10.3052 74.1119 15.7173 73.9276 21.7016 73.9276C27.6858 73.9276 33.0979 74.1119 37.009 74.4089C38.9669 74.5576 40.5362 74.7337 41.6093 74.9264ZM0.406363 74.8398C0.406464 74.8398 0.407844 74.8408 0.410198 74.843C0.407439 74.8409 0.406262 74.8398 0.406363 74.8398ZM0.406363 75.3119C0.406262 75.3119 0.407439 75.3108 0.410195 75.3087C0.407842 75.3108 0.406464 75.3119 0.406363 75.3119ZM42.993 75.3087C42.9957 75.3108 42.9968 75.3119 42.9967 75.3119C42.9966 75.3119 42.9953 75.3108 42.993 75.3087Z" stroke="black" stroke-opacity="0.2"/>
<path d="M23.3123 17.3021C22.9996 17.2527 22.6856 17.2023 22.3707 17.1517C20.5533 16.8599 18.7078 16.5635 16.9307 16.45C15.0608 16.3306 13.2242 16.4093 11.5174 16.9207C11.7163 16.4929 11.9572 16.0851 12.237 15.7033L12.237 15.7034L12.2411 15.6976C12.4806 15.3609 12.6211 14.9901 12.6249 14.5925C12.6285 14.2075 12.5035 13.8415 12.2884 13.5016C12.1161 13.1344 12.0883 12.8421 12.1539 12.6006C12.2214 12.3524 12.4101 12.0746 12.8316 11.7865L13.1189 11.5902L13.0346 11.2526C12.8698 10.5928 13.1131 9.86966 13.7303 9.03022L13.3275 8.73403L13.8071 8.87539C13.9658 8.33677 14.2853 7.85948 14.7227 7.50739C15.1601 7.15529 15.6947 6.94519 16.2547 6.90518L18.974 6.71095L18.9745 6.71092C19.406 6.67967 19.8388 6.75066 20.2378 6.91811C20.6367 7.08554 20.9905 7.34468 21.2704 7.6745C22.0001 8.53625 22.6879 9.4426 23.0765 10.3518C23.4597 11.2483 23.5315 12.0943 23.1148 12.8988C22.8922 13.3287 22.7411 13.7999 22.7642 14.2941C22.7879 14.8002 22.992 15.2798 23.3908 15.7183C23.4965 15.8345 23.5413 16.0319 23.4769 16.4565C23.4538 16.6088 23.4219 16.7617 23.3868 16.93C23.3748 16.9877 23.3623 17.0473 23.3498 17.1092C23.3371 17.1717 23.3244 17.2362 23.3123 17.3021Z" fill="#2F2E41"/>
<path d="M23.3123 17.3021C22.9996 17.2527 22.6856 17.2023 22.3707 17.1517C20.5533 16.8599 18.7078 16.5635 16.9307 16.45C15.0608 16.3306 13.2242 16.4093 11.5174 16.9207C11.7163 16.4929 11.9572 16.0851 12.237 15.7033L12.237 15.7034L12.2411 15.6976C12.4806 15.3609 12.6211 14.9901 12.6249 14.5925C12.6285 14.2075 12.5035 13.8415 12.2884 13.5016C12.1161 13.1344 12.0883 12.8421 12.1539 12.6006C12.2214 12.3524 12.4101 12.0746 12.8316 11.7865L13.1189 11.5902L13.0346 11.2526C12.8698 10.5928 13.1131 9.86966 13.7303 9.03022L13.3275 8.73403L13.8071 8.87539C13.9658 8.33677 14.2853 7.85948 14.7227 7.50739C15.1601 7.15529 15.6947 6.94519 16.2547 6.90518L18.974 6.71095L18.9745 6.71092C19.406 6.67967 19.8388 6.75066 20.2378 6.91811C20.6367 7.08554 20.9905 7.34468 21.2704 7.6745C22.0001 8.53625 22.6879 9.4426 23.0765 10.3518C23.4597 11.2483 23.5315 12.0943 23.1148 12.8988C22.8922 13.3287 22.7411 13.7999 22.7642 14.2941C22.7879 14.8002 22.992 15.2798 23.3908 15.7183C23.4965 15.8345 23.5413 16.0319 23.4769 16.4565C23.4538 16.6088 23.4219 16.7617 23.3868 16.93C23.3748 16.9877 23.3623 17.0473 23.3498 17.1092C23.3371 17.1717 23.3244 17.2362 23.3123 17.3021Z" stroke="black"/>
<path d="M23.3123 17.3021C22.9996 17.2527 22.6856 17.2023 22.3707 17.1517C20.5533 16.8599 18.7078 16.5635 16.9307 16.45C15.0608 16.3306 13.2242 16.4093 11.5174 16.9207C11.7163 16.4929 11.9572 16.0851 12.237 15.7033L12.237 15.7034L12.2411 15.6976C12.4806 15.3609 12.6211 14.9901 12.6249 14.5925C12.6285 14.2075 12.5035 13.8415 12.2884 13.5016C12.1161 13.1344 12.0883 12.8421 12.1539 12.6006C12.2214 12.3524 12.4101 12.0746 12.8316 11.7865L13.1189 11.5902L13.0346 11.2526C12.8698 10.5928 13.1131 9.86966 13.7303 9.03022L13.3275 8.73403L13.8071 8.87539C13.9658 8.33677 14.2853 7.85948 14.7227 7.50739C15.1601 7.15529 15.6947 6.94519 16.2547 6.90518L18.974 6.71095L18.9745 6.71092C19.406 6.67967 19.8388 6.75066 20.2378 6.91811C20.6367 7.08554 20.9905 7.34468 21.2704 7.6745C22.0001 8.53625 22.6879 9.4426 23.0765 10.3518C23.4597 11.2483 23.5315 12.0943 23.1148 12.8988C22.8922 13.3287 22.7411 13.7999 22.7642 14.2941C22.7879 14.8002 22.992 15.2798 23.3908 15.7183C23.4965 15.8345 23.5413 16.0319 23.4769 16.4565C23.4538 16.6088 23.4219 16.7617 23.3868 16.93C23.3748 16.9877 23.3623 17.0473 23.3498 17.1092C23.3371 17.1717 23.3244 17.2362 23.3123 17.3021Z" stroke="black" stroke-opacity="0.2"/>
<path d="M100.42 65.9546H23.4452C22.8933 65.9546 22.364 65.7353 21.9738 65.3451C21.6889 65.0602 21.4952 64.7014 21.4113 64.3137C48.9391 61.1512 75.953 61.1508 102.454 64.3116C102.37 64.7 102.176 65.0597 101.891 65.3451C101.501 65.7353 100.971 65.9546 100.42 65.9546Z" fill="#2F2E41"/>
<path d="M100.42 65.9546H23.4452C22.8933 65.9546 22.364 65.7353 21.9738 65.3451C21.6889 65.0602 21.4952 64.7014 21.4113 64.3137C48.9391 61.1512 75.953 61.1508 102.454 64.3116C102.37 64.7 102.176 65.0597 101.891 65.3451C101.501 65.7353 100.971 65.9546 100.42 65.9546Z" stroke="black"/>
<path d="M100.42 65.9546H23.4452C22.8933 65.9546 22.364 65.7353 21.9738 65.3451C21.6889 65.0602 21.4952 64.7014 21.4113 64.3137C48.9391 61.1512 75.953 61.1508 102.454 64.3116C102.37 64.7 102.176 65.0597 101.891 65.3451C101.501 65.7353 100.971 65.9546 100.42 65.9546Z" stroke="black" stroke-opacity="0.2"/>
<path d="M102.096 63.5237L21.7421 63.3752L30.8123 48.1135L30.8134 48.1117L30.8579 48.0376L30.9291 47.9188V47.7803V12.48V12.4799C30.9291 12.1171 31.0005 11.7579 31.1393 11.4227C31.2782 11.0875 31.4817 10.7829 31.7382 10.5264C31.9947 10.2698 32.2993 10.0663 32.6345 9.92752C32.9697 9.78869 33.3289 9.71725 33.6917 9.71729H33.6918H89.7175C90.0804 9.71725 90.4396 9.78869 90.7748 9.92752C91.11 10.0663 91.4146 10.2698 91.6711 10.5264C91.9276 10.7829 92.1311 11.0875 92.27 11.4227C92.4088 11.7579 92.4802 12.1171 92.4802 12.4799V48.0232V48.1669L92.5564 48.2886L102.096 63.5237Z" fill="#3F3D56"/>
<path d="M102.096 63.5237L21.7421 63.3752L30.8123 48.1135L30.8134 48.1117L30.8579 48.0376L30.9291 47.9188V47.7803V12.48V12.4799C30.9291 12.1171 31.0005 11.7579 31.1393 11.4227C31.2782 11.0875 31.4817 10.7829 31.7382 10.5264C31.9947 10.2698 32.2993 10.0663 32.6345 9.92752C32.9697 9.78869 33.3289 9.71725 33.6917 9.71729H33.6918H89.7175C90.0804 9.71725 90.4396 9.78869 90.7748 9.92752C91.11 10.0663 91.4146 10.2698 91.6711 10.5264C91.9276 10.7829 92.1311 11.0875 92.27 11.4227C92.4088 11.7579 92.4802 12.1171 92.4802 12.4799V48.0232V48.1669L92.5564 48.2886L102.096 63.5237Z" stroke="black"/>
<path d="M102.096 63.5237L21.7421 63.3752L30.8123 48.1135L30.8134 48.1117L30.8579 48.0376L30.9291 47.9188V47.7803V12.48V12.4799C30.9291 12.1171 31.0005 11.7579 31.1393 11.4227C31.2782 11.0875 31.4817 10.7829 31.7382 10.5264C31.9947 10.2698 32.2993 10.0663 32.6345 9.92752C32.9697 9.78869 33.3289 9.71725 33.6917 9.71729H33.6918H89.7175C90.0804 9.71725 90.4396 9.78869 90.7748 9.92752C91.11 10.0663 91.4146 10.2698 91.6711 10.5264C91.9276 10.7829 92.1311 11.0875 92.27 11.4227C92.4088 11.7579 92.4802 12.1171 92.4802 12.4799V48.0232V48.1669L92.5564 48.2886L102.096 63.5237Z" stroke="black" stroke-opacity="0.2"/>
<path d="M33.2199 12.1597C33.3254 12.0541 33.4685 11.9947 33.6178 11.9945H90.2471C90.3964 11.9947 90.5395 12.0541 90.645 12.1597C90.7506 12.2653 90.81 12.4085 90.8102 12.5579V44.7431C90.81 44.8925 90.7506 45.0357 90.645 45.1413C90.5394 45.2469 90.3962 45.3063 90.2468 45.3065H33.618C33.4687 45.3063 33.3255 45.2469 33.2199 45.1413C33.1143 45.0358 33.0549 44.8927 33.0547 44.7434V12.5576C33.0549 12.4083 33.1143 12.2652 33.2199 12.1597Z" fill="white"/>
<path d="M33.2199 12.1597C33.3254 12.0541 33.4685 11.9947 33.6178 11.9945H90.2471C90.3964 11.9947 90.5395 12.0541 90.645 12.1597C90.7506 12.2653 90.81 12.4085 90.8102 12.5579V44.7431C90.81 44.8925 90.7506 45.0357 90.645 45.1413C90.5394 45.2469 90.3962 45.3063 90.2468 45.3065H33.618C33.4687 45.3063 33.3255 45.2469 33.2199 45.1413C33.1143 45.0358 33.0549 44.8927 33.0547 44.7434V12.5576C33.0549 12.4083 33.1143 12.2652 33.2199 12.1597Z" stroke="black"/>
<path d="M33.2199 12.1597C33.3254 12.0541 33.4685 11.9947 33.6178 11.9945H90.2471C90.3964 11.9947 90.5395 12.0541 90.645 12.1597C90.7506 12.2653 90.81 12.4085 90.8102 12.5579V44.7431C90.81 44.8925 90.7506 45.0357 90.645 45.1413C90.5394 45.2469 90.3962 45.3063 90.2468 45.3065H33.618C33.4687 45.3063 33.3255 45.2469 33.2199 45.1413C33.1143 45.0358 33.0549 44.8927 33.0547 44.7434V12.5576C33.0549 12.4083 33.1143 12.2652 33.2199 12.1597Z" stroke="black" stroke-opacity="0.2"/>
<path d="M30.9908 56.8451L33.883 50.5576H89.3889L92.5326 56.8451H30.9908ZM92.5649 56.9097C92.5648 56.9096 92.5648 56.9095 92.5648 56.9094L92.5648 56.9095L92.5649 56.9097Z" fill="#2F2E41"/>
<path d="M30.9908 56.8451L33.883 50.5576H89.3889L92.5326 56.8451H30.9908ZM92.5649 56.9097C92.5648 56.9096 92.5648 56.9095 92.5648 56.9094L92.5648 56.9095L92.5649 56.9097Z" stroke="black"/>
<path d="M30.9908 56.8451L33.883 50.5576H89.3889L92.5326 56.8451H30.9908ZM92.5649 56.9097C92.5648 56.9096 92.5648 56.9095 92.5648 56.9094L92.5648 56.9095L92.5649 56.9097Z" stroke="black" stroke-opacity="0.2"/>
<path d="M61.8879 10.28C61.8879 10.3812 61.8059 10.4632 61.7047 10.4632C61.6035 10.4632 61.5215 10.3812 61.5215 10.28C61.5215 10.1788 61.6035 10.0968 61.7047 10.0968C61.8059 10.0968 61.8879 10.1788 61.8879 10.28Z" fill="white"/>
<path d="M61.8879 10.28C61.8879 10.3812 61.8059 10.4632 61.7047 10.4632C61.6035 10.4632 61.5215 10.3812 61.5215 10.28C61.5215 10.1788 61.6035 10.0968 61.7047 10.0968C61.8059 10.0968 61.8879 10.1788 61.8879 10.28Z" stroke="black"/>
<path d="M61.8879 10.28C61.8879 10.3812 61.8059 10.4632 61.7047 10.4632C61.6035 10.4632 61.5215 10.3812 61.5215 10.28C61.5215 10.1788 61.6035 10.0968 61.7047 10.0968C61.8059 10.0968 61.8879 10.1788 61.8879 10.28Z" stroke="black" stroke-opacity="0.2"/>
<path d="M54.9638 61.7034L55.6756 59.0597H67.9204L68.8355 61.7034H54.9638Z" fill="#2F2E41"/>
<path d="M54.9638 61.7034L55.6756 59.0597H67.9204L68.8355 61.7034H54.9638Z" stroke="black"/>
<path d="M54.9638 61.7034L55.6756 59.0597H67.9204L68.8355 61.7034H54.9638Z" stroke="black" stroke-opacity="0.2"/>
<mask id="path-9-inside-1_1_717" fill="white">
<path d="M92.9794 47.2489V47.8561H30.3828L30.4299 47.7803V47.2489H92.9794Z"/>
</mask>
<path d="M92.9794 47.2489V47.8561H30.3828L30.4299 47.7803V47.2489H92.9794Z" fill="#2F2E41"/>
<path d="M92.9794 47.2489H93.9794V46.2489H92.9794V47.2489ZM92.9794 47.8561V48.8561H93.9794V47.8561H92.9794ZM30.3828 47.8561L29.5334 47.3284L28.5841 48.8561H30.3828V47.8561ZM30.4299 47.7803L31.2793 48.3081L31.4299 48.0657V47.7803H30.4299ZM30.4299 47.2489V46.2489H29.4299V47.2489H30.4299ZM91.9794 47.2489V47.8561H93.9794V47.2489H91.9794ZM92.9794 46.8561H30.3828V48.8561H92.9794V46.8561ZM31.2322 48.3839L31.2793 48.3081L29.5805 47.2525L29.5334 47.3284L31.2322 48.3839ZM31.4299 47.7803V47.2489H29.4299V47.7803H31.4299ZM30.4299 48.2489H92.9794V46.2489H30.4299V48.2489Z" fill="black" mask="url(#path-9-inside-1_1_717)"/>
<path d="M92.9794 47.2489H93.9794V46.2489H92.9794V47.2489ZM92.9794 47.8561V48.8561H93.9794V47.8561H92.9794ZM30.3828 47.8561L29.5334 47.3284L28.5841 48.8561H30.3828V47.8561ZM30.4299 47.7803L31.2793 48.3081L31.4299 48.0657V47.7803H30.4299ZM30.4299 47.2489V46.2489H29.4299V47.2489H30.4299ZM91.9794 47.2489V47.8561H93.9794V47.2489H91.9794ZM92.9794 46.8561H30.3828V48.8561H92.9794V46.8561ZM31.2322 48.3839L31.2793 48.3081L29.5805 47.2525L29.5334 47.3284L31.2322 48.3839ZM31.4299 47.7803V47.2489H29.4299V47.7803H31.4299ZM30.4299 48.2489H92.9794V46.2489H30.4299V48.2489Z" fill="black" fill-opacity="0.2" mask="url(#path-9-inside-1_1_717)"/>
<path d="M101.362 11.5705C101.362 17.1638 96.8274 21.6981 91.2341 21.6981C85.6407 21.6981 81.1064 17.1638 81.1064 11.5705C81.1064 5.97716 85.6407 1.44287 91.2341 1.44287C96.8274 1.44287 101.362 5.97716 101.362 11.5705Z" fill="#005387"/>
<path d="M101.362 11.5705C101.362 17.1638 96.8274 21.6981 91.2341 21.6981C85.6407 21.6981 81.1064 17.1638 81.1064 11.5705C81.1064 5.97716 85.6407 1.44287 91.2341 1.44287C96.8274 1.44287 101.362 5.97716 101.362 11.5705Z" stroke="black"/>
<path d="M101.362 11.5705C101.362 17.1638 96.8274 21.6981 91.2341 21.6981C85.6407 21.6981 81.1064 17.1638 81.1064 11.5705C81.1064 5.97716 85.6407 1.44287 91.2341 1.44287C96.8274 1.44287 101.362 5.97716 101.362 11.5705Z" stroke="black" stroke-opacity="0.2"/>
<path d="M86.7236 10.28C86.7238 10.2516 86.7352 10.2244 86.7552 10.2043C86.7753 10.1843 86.8025 10.1729 86.8309 10.1727L86.7236 10.28ZM86.3309 10.28H86.2236H86.3309Z" fill="white"/>
<path d="M86.7236 10.28C86.7238 10.2516 86.7352 10.2244 86.7552 10.2043C86.7753 10.1843 86.8025 10.1729 86.8309 10.1727L86.7236 10.28ZM86.3309 10.28H86.2236H86.3309Z" stroke="black"/>
<path d="M86.7236 10.28C86.7238 10.2516 86.7352 10.2244 86.7552 10.2043C86.7753 10.1843 86.8025 10.1729 86.8309 10.1727L86.7236 10.28ZM86.3309 10.28H86.2236H86.3309Z" stroke="black" stroke-opacity="0.2"/>
<mask id="path-13-inside-2_1_717" fill="white">
<path d="M93.9666 10.28H88.501V7.85079C88.501 6.09134 89.6503 4.81433 91.2338 4.81433C92.8173 4.81433 93.9666 6.09134 93.9666 7.85079L93.9666 10.28ZM89.1083 9.67267H93.3593V7.85079C93.3593 6.42055 92.4853 5.42163 91.2338 5.42163C89.9823 5.42163 89.1083 6.42056 89.1083 7.85079L89.1083 9.67267Z"/>
</mask>
<path d="M93.9666 10.28H88.501V7.85079C88.501 6.09134 89.6503 4.81433 91.2338 4.81433C92.8173 4.81433 93.9666 6.09134 93.9666 7.85079L93.9666 10.28ZM89.1083 9.67267H93.3593V7.85079C93.3593 6.42055 92.4853 5.42163 91.2338 5.42163C89.9823 5.42163 89.1083 6.42056 89.1083 7.85079L89.1083 9.67267Z" fill="white"/>
<path d="M93.9666 10.28V11.28H94.9666L94.9666 10.28L93.9666 10.28ZM88.501 10.28H87.501V11.28H88.501V10.28ZM93.9666 7.85079L92.9666 7.85079L92.9666 7.8508L93.9666 7.85079ZM89.1083 9.67267L88.1083 9.67267L88.1083 10.6727H89.1083V9.67267ZM93.3593 9.67267V10.6727H94.3593V9.67267H93.3593ZM89.1083 7.85079L90.1083 7.8508V7.85079H89.1083ZM93.9666 9.27996H88.501V11.28H93.9666V9.27996ZM89.501 10.28V7.85079H87.501V10.28H89.501ZM89.501 7.85079C89.501 6.54192 90.2991 5.81433 91.2338 5.81433V3.81433C89.0015 3.81433 87.501 5.64076 87.501 7.85079H89.501ZM91.2338 5.81433C92.1685 5.81433 92.9666 6.54192 92.9666 7.85079H94.9666C94.9666 5.64076 93.466 3.81433 91.2338 3.81433V5.81433ZM92.9666 7.8508L92.9666 10.28L94.9666 10.28L94.9666 7.85079L92.9666 7.8508ZM89.1083 10.6727H93.3593V8.67267H89.1083V10.6727ZM94.3593 9.67267V7.85079H92.3593V9.67267H94.3593ZM94.3593 7.85079C94.3593 6.93453 94.078 6.08088 93.5185 5.44137C92.9504 4.79214 92.143 4.42163 91.2338 4.42163V6.42163C91.5761 6.42163 91.8315 6.55057 92.0133 6.75837C92.2036 6.97588 92.3593 7.33681 92.3593 7.85079H94.3593ZM91.2338 4.42163C90.3246 4.42163 89.5172 4.79215 88.9491 5.44137C88.3896 6.08088 88.1083 6.93453 88.1083 7.85079H90.1083C90.1083 7.33682 90.264 6.97588 90.4543 6.75837C90.6361 6.55057 90.8915 6.42163 91.2338 6.42163V4.42163ZM88.1083 7.85079L88.1083 9.67267L90.1083 9.67267L90.1083 7.8508L88.1083 7.85079Z" fill="black" mask="url(#path-13-inside-2_1_717)"/>
<path d="M93.9666 10.28V11.28H94.9666L94.9666 10.28L93.9666 10.28ZM88.501 10.28H87.501V11.28H88.501V10.28ZM93.9666 7.85079L92.9666 7.85079L92.9666 7.8508L93.9666 7.85079ZM89.1083 9.67267L88.1083 9.67267L88.1083 10.6727H89.1083V9.67267ZM93.3593 9.67267V10.6727H94.3593V9.67267H93.3593ZM89.1083 7.85079L90.1083 7.8508V7.85079H89.1083ZM93.9666 9.27996H88.501V11.28H93.9666V9.27996ZM89.501 10.28V7.85079H87.501V10.28H89.501ZM89.501 7.85079C89.501 6.54192 90.2991 5.81433 91.2338 5.81433V3.81433C89.0015 3.81433 87.501 5.64076 87.501 7.85079H89.501ZM91.2338 5.81433C92.1685 5.81433 92.9666 6.54192 92.9666 7.85079H94.9666C94.9666 5.64076 93.466 3.81433 91.2338 3.81433V5.81433ZM92.9666 7.8508L92.9666 10.28L94.9666 10.28L94.9666 7.85079L92.9666 7.8508ZM89.1083 10.6727H93.3593V8.67267H89.1083V10.6727ZM94.3593 9.67267V7.85079H92.3593V9.67267H94.3593ZM94.3593 7.85079C94.3593 6.93453 94.078 6.08088 93.5185 5.44137C92.9504 4.79214 92.143 4.42163 91.2338 4.42163V6.42163C91.5761 6.42163 91.8315 6.55057 92.0133 6.75837C92.2036 6.97588 92.3593 7.33681 92.3593 7.85079H94.3593ZM91.2338 4.42163C90.3246 4.42163 89.5172 4.79215 88.9491 5.44137C88.3896 6.08088 88.1083 6.93453 88.1083 7.85079H90.1083C90.1083 7.33682 90.264 6.97588 90.4543 6.75837C90.6361 6.55057 90.8915 6.42163 91.2338 6.42163V4.42163ZM88.1083 7.85079L88.1083 9.67267L90.1083 9.67267L90.1083 7.8508L88.1083 7.85079Z" fill="black" fill-opacity="0.2" mask="url(#path-13-inside-2_1_717)"/>
<path d="M91.3415 12.7851C91.3415 12.8444 91.2935 12.8924 91.2342 12.8924C91.175 12.8924 91.127 12.8444 91.127 12.7851C91.127 12.7259 91.175 12.6779 91.2342 12.6779C91.2935 12.6779 91.3415 12.7259 91.3415 12.7851Z" fill="white"/>
<path d="M91.3415 12.7851C91.3415 12.8444 91.2935 12.8924 91.2342 12.8924C91.175 12.8924 91.127 12.8444 91.127 12.7851C91.127 12.7259 91.175 12.6779 91.2342 12.6779C91.2935 12.6779 91.3415 12.7259 91.3415 12.7851Z" stroke="black"/>
<path d="M91.3415 12.7851C91.3415 12.8444 91.2935 12.8924 91.2342 12.8924C91.175 12.8924 91.127 12.8444 91.127 12.7851C91.127 12.7259 91.175 12.6779 91.2342 12.6779C91.2935 12.6779 91.3415 12.7259 91.3415 12.7851Z" stroke="black" stroke-opacity="0.2"/>
<mask id="path-16-inside-3_1_717" fill="white">
<path d="M83.8154 34.8892H40.0497C39.8349 34.889 39.6289 34.8035 39.4769 34.6516C39.325 34.4996 39.2395 34.2936 39.2393 34.0787V23.2223C39.2395 23.0075 39.325 22.8015 39.4769 22.6495C39.6289 22.4976 39.8349 22.4121 40.0497 22.4119H83.8154C84.0303 22.4121 84.2363 22.4976 84.3882 22.6495C84.5402 22.8015 84.6256 23.0075 84.6259 23.2223V34.0787C84.6256 34.2936 84.5402 34.4996 84.3882 34.6516C84.2363 34.8035 84.0303 34.889 83.8154 34.8892V34.8892ZM40.0497 22.7361C39.9208 22.7362 39.7972 22.7875 39.706 22.8786C39.6149 22.9698 39.5636 23.0934 39.5634 23.2223V34.0787C39.5636 34.2077 39.6149 34.3313 39.706 34.4224C39.7972 34.5136 39.9208 34.5649 40.0497 34.565H83.8154C83.9443 34.5649 84.068 34.5136 84.1591 34.4224C84.2503 34.3313 84.3016 34.2077 84.3017 34.0787V23.2223C84.3016 23.0934 84.2503 22.9698 84.1591 22.8786C84.068 22.7875 83.9443 22.7362 83.8154 22.7361L40.0497 22.7361Z"/>
</mask>
<path d="M83.8154 34.8892H40.0497C39.8349 34.889 39.6289 34.8035 39.4769 34.6516C39.325 34.4996 39.2395 34.2936 39.2393 34.0787V23.2223C39.2395 23.0075 39.325 22.8015 39.4769 22.6495C39.6289 22.4976 39.8349 22.4121 40.0497 22.4119H83.8154C84.0303 22.4121 84.2363 22.4976 84.3882 22.6495C84.5402 22.8015 84.6256 23.0075 84.6259 23.2223V34.0787C84.6256 34.2936 84.5402 34.4996 84.3882 34.6516C84.2363 34.8035 84.0303 34.889 83.8154 34.8892V34.8892ZM40.0497 22.7361C39.9208 22.7362 39.7972 22.7875 39.706 22.8786C39.6149 22.9698 39.5636 23.0934 39.5634 23.2223V34.0787C39.5636 34.2077 39.6149 34.3313 39.706 34.4224C39.7972 34.5136 39.9208 34.5649 40.0497 34.565H83.8154C83.9443 34.5649 84.068 34.5136 84.1591 34.4224C84.2503 34.3313 84.3016 34.2077 84.3017 34.0787V23.2223C84.3016 23.0934 84.2503 22.9698 84.1591 22.8786C84.068 22.7875 83.9443 22.7362 83.8154 22.7361L40.0497 22.7361Z" fill="#E6E6E6"/>
<path d="M40.0497 34.8892L40.0486 35.8892H40.0497V34.8892ZM39.2393 34.0787L38.2393 34.0787L38.2393 34.0799L39.2393 34.0787ZM39.2393 23.2223L38.2393 23.2212V23.2223H39.2393ZM40.0497 22.4119L40.0497 21.4119L40.0486 21.4119L40.0497 22.4119ZM83.8154 22.4119L83.8166 21.4119H83.8154V22.4119ZM84.6259 23.2223L85.6259 23.2223L85.6259 23.2212L84.6259 23.2223ZM84.6259 34.0787L85.6259 34.0799V34.0787H84.6259ZM40.0497 22.7361L40.0497 21.7361L40.0486 21.7361L40.0497 22.7361ZM39.5634 23.2223L38.5634 23.2213V23.2223H39.5634ZM39.5634 34.0787L38.5634 34.0787L38.5634 34.0798L39.5634 34.0787ZM40.0497 34.565L40.0486 35.565H40.0497V34.565ZM83.8154 34.565L83.8154 35.565L83.8165 35.565L83.8154 34.565ZM84.3017 34.0787L85.3017 34.0798V34.0787H84.3017ZM84.3017 23.2223L85.3017 23.2223L85.3017 23.2212L84.3017 23.2223ZM83.8154 22.7361L83.8165 21.7361L83.8154 21.7361L83.8154 22.7361ZM83.8154 33.8892H40.0497V35.8892H83.8154V33.8892ZM40.0509 33.8892C40.1008 33.8893 40.1487 33.9091 40.184 33.9445L38.7698 35.3587C39.109 35.6979 39.5689 35.8887 40.0486 35.8892L40.0509 33.8892ZM40.184 33.9445C40.2193 33.9798 40.2392 34.0276 40.2393 34.0776L38.2393 34.0799C38.2398 34.5596 38.4306 35.0195 38.7698 35.3587L40.184 33.9445ZM40.2393 34.0787V23.2223H38.2393V34.0787H40.2393ZM40.2393 23.2235C40.2392 23.2734 40.2193 23.3213 40.184 23.3566L38.7698 21.9424C38.4306 22.2816 38.2398 22.7415 38.2393 23.2212L40.2393 23.2235ZM40.184 23.3566C40.1487 23.3919 40.1008 23.4118 40.0509 23.4119L40.0486 21.4119C39.5689 21.4124 39.109 21.6032 38.7698 21.9424L40.184 23.3566ZM40.0497 23.4119H83.8154V21.4119H40.0497V23.4119ZM83.8142 23.4119C83.7643 23.4118 83.7164 23.3919 83.6811 23.3566L85.0953 21.9424C84.7562 21.6032 84.2963 21.4124 83.8166 21.4119L83.8142 23.4119ZM83.6811 23.3566C83.6458 23.3213 83.6259 23.2734 83.6259 23.2235L85.6259 23.2212C85.6253 22.7415 85.4345 22.2816 85.0953 21.9424L83.6811 23.3566ZM83.6259 23.2223V34.0787H85.6259V23.2223H83.6259ZM83.6259 34.0776C83.6259 34.0276 83.6458 33.9798 83.6811 33.9445L85.0953 35.3587C85.4345 35.0195 85.6253 34.5596 85.6259 34.0799L83.6259 34.0776ZM83.6811 33.9445C83.7164 33.9091 83.7643 33.8893 83.8142 33.8892L83.8166 35.8892C84.2963 35.8887 84.7562 35.6978 85.0953 35.3587L83.6811 33.9445ZM40.0486 21.7361C39.6549 21.7365 39.2773 21.8931 38.9989 22.1715L40.4131 23.5858C40.317 23.6818 40.1867 23.7359 40.0508 23.7361L40.0486 21.7361ZM38.9989 22.1715C38.7205 22.45 38.5639 22.8275 38.5634 23.2213L40.5634 23.2234C40.5633 23.3593 40.5092 23.4896 40.4131 23.5858L38.9989 22.1715ZM38.5634 23.2223V34.0787H40.5634V23.2223H38.5634ZM38.5634 34.0798C38.5639 34.4736 38.7205 34.8511 38.9989 35.1296L40.4131 33.7153C40.5093 33.8115 40.5633 33.9418 40.5634 34.0777L38.5634 34.0798ZM38.9989 35.1296C39.2774 35.408 39.6549 35.5646 40.0486 35.565L40.0508 33.565C40.1867 33.5652 40.317 33.6192 40.4131 33.7153L38.9989 35.1296ZM40.0497 35.565H83.8154V33.565H40.0497V35.565ZM83.8165 35.565C84.2103 35.5646 84.5878 35.408 84.8662 35.1296L83.452 33.7153C83.5481 33.6192 83.6784 33.5652 83.8143 33.565L83.8165 35.565ZM84.8662 35.1296C85.1447 34.8511 85.3013 34.4736 85.3017 34.0798L83.3017 34.0777C83.3018 33.9418 83.3559 33.8115 83.452 33.7153L84.8662 35.1296ZM85.3017 34.0787V23.2223H83.3017V34.0787H85.3017ZM85.3017 23.2212C85.3013 22.8275 85.1447 22.45 84.8662 22.1715L83.452 23.5857C83.3559 23.4896 83.3018 23.3593 83.3017 23.2234L85.3017 23.2212ZM84.8662 22.1715C84.5878 21.8931 84.2103 21.7365 83.8165 21.7361L83.8143 23.7361C83.6784 23.7359 83.5481 23.6819 83.452 23.5857L84.8662 22.1715ZM83.8154 21.7361L40.0497 21.7361L40.0497 23.7361L83.8154 23.7361L83.8154 21.7361Z" fill="black" mask="url(#path-16-inside-3_1_717)"/>
<path d="M40.0497 34.8892L40.0486 35.8892H40.0497V34.8892ZM39.2393 34.0787L38.2393 34.0787L38.2393 34.0799L39.2393 34.0787ZM39.2393 23.2223L38.2393 23.2212V23.2223H39.2393ZM40.0497 22.4119L40.0497 21.4119L40.0486 21.4119L40.0497 22.4119ZM83.8154 22.4119L83.8166 21.4119H83.8154V22.4119ZM84.6259 23.2223L85.6259 23.2223L85.6259 23.2212L84.6259 23.2223ZM84.6259 34.0787L85.6259 34.0799V34.0787H84.6259ZM40.0497 22.7361L40.0497 21.7361L40.0486 21.7361L40.0497 22.7361ZM39.5634 23.2223L38.5634 23.2213V23.2223H39.5634ZM39.5634 34.0787L38.5634 34.0787L38.5634 34.0798L39.5634 34.0787ZM40.0497 34.565L40.0486 35.565H40.0497V34.565ZM83.8154 34.565L83.8154 35.565L83.8165 35.565L83.8154 34.565ZM84.3017 34.0787L85.3017 34.0798V34.0787H84.3017ZM84.3017 23.2223L85.3017 23.2223L85.3017 23.2212L84.3017 23.2223ZM83.8154 22.7361L83.8165 21.7361L83.8154 21.7361L83.8154 22.7361ZM83.8154 33.8892H40.0497V35.8892H83.8154V33.8892ZM40.0509 33.8892C40.1008 33.8893 40.1487 33.9091 40.184 33.9445L38.7698 35.3587C39.109 35.6979 39.5689 35.8887 40.0486 35.8892L40.0509 33.8892ZM40.184 33.9445C40.2193 33.9798 40.2392 34.0276 40.2393 34.0776L38.2393 34.0799C38.2398 34.5596 38.4306 35.0195 38.7698 35.3587L40.184 33.9445ZM40.2393 34.0787V23.2223H38.2393V34.0787H40.2393ZM40.2393 23.2235C40.2392 23.2734 40.2193 23.3213 40.184 23.3566L38.7698 21.9424C38.4306 22.2816 38.2398 22.7415 38.2393 23.2212L40.2393 23.2235ZM40.184 23.3566C40.1487 23.3919 40.1008 23.4118 40.0509 23.4119L40.0486 21.4119C39.5689 21.4124 39.109 21.6032 38.7698 21.9424L40.184 23.3566ZM40.0497 23.4119H83.8154V21.4119H40.0497V23.4119ZM83.8142 23.4119C83.7643 23.4118 83.7164 23.3919 83.6811 23.3566L85.0953 21.9424C84.7562 21.6032 84.2963 21.4124 83.8166 21.4119L83.8142 23.4119ZM83.6811 23.3566C83.6458 23.3213 83.6259 23.2734 83.6259 23.2235L85.6259 23.2212C85.6253 22.7415 85.4345 22.2816 85.0953 21.9424L83.6811 23.3566ZM83.6259 23.2223V34.0787H85.6259V23.2223H83.6259ZM83.6259 34.0776C83.6259 34.0276 83.6458 33.9798 83.6811 33.9445L85.0953 35.3587C85.4345 35.0195 85.6253 34.5596 85.6259 34.0799L83.6259 34.0776ZM83.6811 33.9445C83.7164 33.9091 83.7643 33.8893 83.8142 33.8892L83.8166 35.8892C84.2963 35.8887 84.7562 35.6978 85.0953 35.3587L83.6811 33.9445ZM40.0486 21.7361C39.6549 21.7365 39.2773 21.8931 38.9989 22.1715L40.4131 23.5858C40.317 23.6818 40.1867 23.7359 40.0508 23.7361L40.0486 21.7361ZM38.9989 22.1715C38.7205 22.45 38.5639 22.8275 38.5634 23.2213L40.5634 23.2234C40.5633 23.3593 40.5092 23.4896 40.4131 23.5858L38.9989 22.1715ZM38.5634 23.2223V34.0787H40.5634V23.2223H38.5634ZM38.5634 34.0798C38.5639 34.4736 38.7205 34.8511 38.9989 35.1296L40.4131 33.7153C40.5093 33.8115 40.5633 33.9418 40.5634 34.0777L38.5634 34.0798ZM38.9989 35.1296C39.2774 35.408 39.6549 35.5646 40.0486 35.565L40.0508 33.565C40.1867 33.5652 40.317 33.6192 40.4131 33.7153L38.9989 35.1296ZM40.0497 35.565H83.8154V33.565H40.0497V35.565ZM83.8165 35.565C84.2103 35.5646 84.5878 35.408 84.8662 35.1296L83.452 33.7153C83.5481 33.6192 83.6784 33.5652 83.8143 33.565L83.8165 35.565ZM84.8662 35.1296C85.1447 34.8511 85.3013 34.4736 85.3017 34.0798L83.3017 34.0777C83.3018 33.9418 83.3559 33.8115 83.452 33.7153L84.8662 35.1296ZM85.3017 34.0787V23.2223H83.3017V34.0787H85.3017ZM85.3017 23.2212C85.3013 22.8275 85.1447 22.45 84.8662 22.1715L83.452 23.5857C83.3559 23.4896 83.3018 23.3593 83.3017 23.2234L85.3017 23.2212ZM84.8662 22.1715C84.5878 21.8931 84.2103 21.7365 83.8165 21.7361L83.8143 23.7361C83.6784 23.7359 83.5481 23.6819 83.452 23.5857L84.8662 22.1715ZM83.8154 21.7361L40.0497 21.7361L40.0497 23.7361L83.8154 23.7361L83.8154 21.7361Z" fill="black" fill-opacity="0.2" mask="url(#path-16-inside-3_1_717)"/>
<path d="M49.6517 28.2341C49.6517 29.7813 48.3975 31.0355 46.8503 31.0355C45.3031 31.0355 44.0488 29.7813 44.0488 28.2341C44.0488 26.6869 45.3031 25.4326 46.8503 25.4326C48.3975 25.4326 49.6517 26.6869 49.6517 28.2341Z" fill="#E6E6E6"/>
<path d="M49.6517 28.2341C49.6517 29.7813 48.3975 31.0355 46.8503 31.0355C45.3031 31.0355 44.0488 29.7813 44.0488 28.2341C44.0488 26.6869 45.3031 25.4326 46.8503 25.4326C48.3975 25.4326 49.6517 26.6869 49.6517 28.2341Z" stroke="black"/>
<path d="M49.6517 28.2341C49.6517 29.7813 48.3975 31.0355 46.8503 31.0355C45.3031 31.0355 44.0488 29.7813 44.0488 28.2341C44.0488 26.6869 45.3031 25.4326 46.8503 25.4326C48.3975 25.4326 49.6517 26.6869 49.6517 28.2341Z" stroke="black" stroke-opacity="0.2"/>
<path d="M54.4732 26.5331V26.5331H54.474H80.4139C80.4272 26.5331 80.44 26.5384 80.4494 26.5478C80.4588 26.5572 80.4641 26.57 80.4641 26.5833C80.4641 26.5966 80.4588 26.6094 80.4494 26.6188C80.44 26.6283 80.4272 26.6336 80.4139 26.6336L54.474 26.6336L54.4732 26.6336C54.4666 26.6336 54.46 26.6323 54.4539 26.6298C54.4478 26.6272 54.4423 26.6236 54.4376 26.6189C54.4329 26.6142 54.4292 26.6087 54.4267 26.6026C54.4242 26.5965 54.4229 26.5899 54.4229 26.5833C54.4229 26.5767 54.4242 26.5702 54.4267 26.5641C54.4292 26.558 54.4329 26.5524 54.4376 26.5478C54.4423 26.5431 54.4478 26.5394 54.4539 26.5369C54.46 26.5344 54.4665 26.5331 54.4732 26.5331Z" fill="#E6E6E6"/>
<path d="M54.4732 26.5331V26.5331H54.474H80.4139C80.4272 26.5331 80.44 26.5384 80.4494 26.5478C80.4588 26.5572 80.4641 26.57 80.4641 26.5833C80.4641 26.5966 80.4588 26.6094 80.4494 26.6188C80.44 26.6283 80.4272 26.6336 80.4139 26.6336L54.474 26.6336L54.4732 26.6336C54.4666 26.6336 54.46 26.6323 54.4539 26.6298C54.4478 26.6272 54.4423 26.6236 54.4376 26.6189C54.4329 26.6142 54.4292 26.6087 54.4267 26.6026C54.4242 26.5965 54.4229 26.5899 54.4229 26.5833C54.4229 26.5767 54.4242 26.5702 54.4267 26.5641C54.4292 26.558 54.4329 26.5524 54.4376 26.5478C54.4423 26.5431 54.4478 26.5394 54.4539 26.5369C54.46 26.5344 54.4665 26.5331 54.4732 26.5331Z" stroke="black"/>
<path d="M54.4732 26.5331V26.5331H54.474H80.4139C80.4272 26.5331 80.44 26.5384 80.4494 26.5478C80.4588 26.5572 80.4641 26.57 80.4641 26.5833C80.4641 26.5966 80.4588 26.6094 80.4494 26.6188C80.44 26.6283 80.4272 26.6336 80.4139 26.6336L54.474 26.6336L54.4732 26.6336C54.4666 26.6336 54.46 26.6323 54.4539 26.6298C54.4478 26.6272 54.4423 26.6236 54.4376 26.6189C54.4329 26.6142 54.4292 26.6087 54.4267 26.6026C54.4242 26.5965 54.4229 26.5899 54.4229 26.5833C54.4229 26.5767 54.4242 26.5702 54.4267 26.5641C54.4292 26.558 54.4329 26.5524 54.4376 26.5478C54.4423 26.5431 54.4478 26.5394 54.4539 26.5369C54.46 26.5344 54.4665 26.5331 54.4732 26.5331Z" stroke="black" stroke-opacity="0.2"/>
<path d="M54.4385 29.8492C54.448 29.8398 54.4607 29.8345 54.4741 29.8345H65.6361C65.6494 29.8345 65.6622 29.8398 65.6716 29.8492C65.681 29.8586 65.6863 29.8714 65.6863 29.8847C65.6863 29.898 65.681 29.9108 65.6716 29.9202C65.6622 29.9297 65.6494 29.935 65.6361 29.935H54.4741C54.4607 29.935 54.448 29.9297 54.4385 29.9202C54.4291 29.9108 54.4238 29.898 54.4238 29.8847C54.4238 29.8714 54.4291 29.8586 54.4385 29.8492Z" fill="#E6E6E6"/>
<path d="M54.4385 29.8492C54.448 29.8398 54.4607 29.8345 54.4741 29.8345H65.6361C65.6494 29.8345 65.6622 29.8398 65.6716 29.8492C65.681 29.8586 65.6863 29.8714 65.6863 29.8847C65.6863 29.898 65.681 29.9108 65.6716 29.9202C65.6622 29.9297 65.6494 29.935 65.6361 29.935H54.4741C54.4607 29.935 54.448 29.9297 54.4385 29.9202C54.4291 29.9108 54.4238 29.898 54.4238 29.8847C54.4238 29.8714 54.4291 29.8586 54.4385 29.8492Z" stroke="black"/>
<path d="M54.4385 29.8492C54.448 29.8398 54.4607 29.8345 54.4741 29.8345H65.6361C65.6494 29.8345 65.6622 29.8398 65.6716 29.8492C65.681 29.8586 65.6863 29.8714 65.6863 29.8847C65.6863 29.898 65.681 29.9108 65.6716 29.9202C65.6622 29.9297 65.6494 29.935 65.6361 29.935H54.4741C54.4607 29.935 54.448 29.9297 54.4385 29.9202C54.4291 29.9108 54.4238 29.898 54.4238 29.8847C54.4238 29.8714 54.4291 29.8586 54.4385 29.8492Z" stroke="black" stroke-opacity="0.2"/>
<path d="M29.7949 28.2564L29.9538 28.1709L30.0215 28.0036L30.8676 25.9131C30.9273 25.7657 31.0243 25.6363 31.149 25.5377C31.2738 25.4391 31.4221 25.3746 31.5793 25.3506C31.7365 25.3266 31.8973 25.3439 32.0458 25.4008C32.1943 25.4577 32.3255 25.5522 32.4264 25.6751C32.5741 25.8549 32.648 26.0841 32.633 26.3163C32.618 26.5485 32.5153 26.7663 32.3457 26.9257L29.9812 29.1469L22.6612 33.0385L22.5942 30.6922C25.1214 30.234 27.5414 29.4685 29.7949 28.2564Z" fill="#FFB8B8"/>
<path d="M29.7949 28.2564L29.9538 28.1709L30.0215 28.0036L30.8676 25.9131C30.9273 25.7657 31.0243 25.6363 31.149 25.5377C31.2738 25.4391 31.4221 25.3746 31.5793 25.3506C31.7365 25.3266 31.8973 25.3439 32.0458 25.4008C32.1943 25.4577 32.3255 25.5522 32.4264 25.6751C32.5741 25.8549 32.648 26.0841 32.633 26.3163C32.618 26.5485 32.5153 26.7663 32.3457 26.9257L29.9812 29.1469L22.6612 33.0385L22.5942 30.6922C25.1214 30.234 27.5414 29.4685 29.7949 28.2564Z" stroke="black"/>
<path d="M29.7949 28.2564L29.9538 28.1709L30.0215 28.0036L30.8676 25.9131C30.9273 25.7657 31.0243 25.6363 31.149 25.5377C31.2738 25.4391 31.4221 25.3746 31.5793 25.3506C31.7365 25.3266 31.8973 25.3439 32.0458 25.4008C32.1943 25.4577 32.3255 25.5522 32.4264 25.6751C32.5741 25.8549 32.648 26.0841 32.633 26.3163C32.618 26.5485 32.5153 26.7663 32.3457 26.9257L29.9812 29.1469L22.6612 33.0385L22.5942 30.6922C25.1214 30.234 27.5414 29.4685 29.7949 28.2564Z" stroke="black" stroke-opacity="0.2"/>
<path d="M15.8228 49.5724C15.5919 50.0999 15.487 50.6261 15.5291 51.146C15.5685 51.6324 15.7343 52.0846 16.0068 52.5013C14.7864 53.154 13.6515 53.9565 12.6286 54.8909C12.4916 54.9784 12.3367 55.0343 12.1751 55.0542C12.0028 55.0754 11.8279 55.0552 11.665 54.9951C11.5021 54.9351 11.3559 54.837 11.2386 54.709C11.1212 54.581 11.0362 54.4268 10.9905 54.2593L10.5081 54.3908L10.9905 54.2593C10.9501 54.1109 10.9415 53.9557 10.9653 53.8037C10.9892 53.6518 11.0449 53.5066 11.1289 53.3778L10.7718 53.1451L11.1289 53.3778L12.9061 50.6503L12.5202 50.3989L12.9061 50.6503C13.2588 50.109 13.8 49.7181 14.4246 49.5533C14.8867 49.4313 15.3702 49.4396 15.8228 49.5724Z" fill="#2F2E41"/>
<path d="M15.8228 49.5724C15.5919 50.0999 15.487 50.6261 15.5291 51.146C15.5685 51.6324 15.7343 52.0846 16.0068 52.5013C14.7864 53.154 13.6515 53.9565 12.6286 54.8909C12.4916 54.9784 12.3367 55.0343 12.1751 55.0542C12.0028 55.0754 11.8279 55.0552 11.665 54.9951C11.5021 54.9351 11.3559 54.837 11.2386 54.709C11.1212 54.581 11.0362 54.4268 10.9905 54.2593L10.5081 54.3908L10.9905 54.2593C10.9501 54.1109 10.9415 53.9557 10.9653 53.8037C10.9892 53.6518 11.0449 53.5066 11.1289 53.3778L10.7718 53.1451L11.1289 53.3778L12.9061 50.6503L12.5202 50.3989L12.9061 50.6503C13.2588 50.109 13.8 49.7181 14.4246 49.5533C14.8867 49.4313 15.3702 49.4396 15.8228 49.5724Z" stroke="black"/>
<path d="M15.8228 49.5724C15.5919 50.0999 15.487 50.6261 15.5291 51.146C15.5685 51.6324 15.7343 52.0846 16.0068 52.5013C14.7864 53.154 13.6515 53.9565 12.6286 54.8909C12.4916 54.9784 12.3367 55.0343 12.1751 55.0542C12.0028 55.0754 11.8279 55.0552 11.665 54.9951C11.5021 54.9351 11.3559 54.837 11.2386 54.709C11.1212 54.581 11.0362 54.4268 10.9905 54.2593L10.5081 54.3908L10.9905 54.2593C10.9501 54.1109 10.9415 53.9557 10.9653 53.8037C10.9892 53.6518 11.0449 53.5066 11.1289 53.3778L10.7718 53.1451L11.1289 53.3778L12.9061 50.6503L12.5202 50.3989L12.9061 50.6503C13.2588 50.109 13.8 49.7181 14.4246 49.5533C14.8867 49.4313 15.3702 49.4396 15.8228 49.5724Z" stroke="black" stroke-opacity="0.2"/>
<path d="M21.2607 47.4919L17.2752 44.4332L21.4069 39.5982L29.7675 47.3905C30.1947 47.7887 30.4723 48.3214 30.5538 48.8997C30.6353 49.4779 30.5159 50.0667 30.2154 50.5674C29.9906 50.9422 29.6732 51.2528 29.2937 51.4696C28.9143 51.6863 28.4854 51.8019 28.0484 51.8052L16.6661 51.8914L16.3018 49.7787L21.0974 48.3683L22.041 48.0907L21.2607 47.4919Z" fill="#2F2E41"/>
<path d="M21.2607 47.4919L17.2752 44.4332L21.4069 39.5982L29.7675 47.3905C30.1947 47.7887 30.4723 48.3214 30.5538 48.8997C30.6353 49.4779 30.5159 50.0667 30.2154 50.5674C29.9906 50.9422 29.6732 51.2528 29.2937 51.4696C28.9143 51.6863 28.4854 51.8019 28.0484 51.8052L16.6661 51.8914L16.3018 49.7787L21.0974 48.3683L22.041 48.0907L21.2607 47.4919Z" stroke="black"/>
<path d="M21.2607 47.4919L17.2752 44.4332L21.4069 39.5982L29.7675 47.3905C30.1947 47.7887 30.4723 48.3214 30.5538 48.8997C30.6353 49.4779 30.5159 50.0667 30.2154 50.5674C29.9906 50.9422 29.6732 51.2528 29.2937 51.4696C28.9143 51.6863 28.4854 51.8019 28.0484 51.8052L16.6661 51.8914L16.3018 49.7787L21.0974 48.3683L22.041 48.0907L21.2607 47.4919Z" stroke="black" stroke-opacity="0.2"/>
<path d="M16.4834 44.8971L16.3776 45.0184L16.3624 45.1787L13.9475 70.6357H12.0696C10.8477 62.2599 9.64327 53.9425 9.63481 46.916C9.62631 39.855 10.8298 34.2768 14.247 31.2149L22.3343 32.5315L21.3032 39.3745L16.4834 44.8971Z" fill="#2F2E41"/>
<path d="M16.4834 44.8971L16.3776 45.0184L16.3624 45.1787L13.9475 70.6357H12.0696C10.8477 62.2599 9.64327 53.9425 9.63481 46.916C9.62631 39.855 10.8298 34.2768 14.247 31.2149L22.3343 32.5315L21.3032 39.3745L16.4834 44.8971Z" stroke="black"/>
<path d="M16.4834 44.8971L16.3776 45.0184L16.3624 45.1787L13.9475 70.6357H12.0696C10.8477 62.2599 9.64327 53.9425 9.63481 46.916C9.62631 39.855 10.8298 34.2768 14.247 31.2149L22.3343 32.5315L21.3032 39.3745L16.4834 44.8971Z" stroke="black" stroke-opacity="0.2"/>
<path d="M15.8195 74.3701L15.7249 74.3085L15.6131 74.2935L12.7278 73.9056C12.2329 73.5531 11.8757 73.0378 11.72 72.4481C11.5981 71.9859 11.6064 71.5025 11.7391 71.0498C12.2667 71.2807 12.7928 71.3856 13.3127 71.3435C13.8135 71.3029 14.2779 71.1283 14.7048 70.8413C15.0576 71.3194 15.472 71.6 15.8804 71.8418C15.9618 71.89 16.0417 71.9361 16.1205 71.9816C16.5476 72.2282 16.9389 72.4541 17.3337 72.8722C17.4205 73.0087 17.476 73.1629 17.4958 73.3237C17.517 73.496 17.4968 73.6709 17.4368 73.8338C17.3767 73.9968 17.2786 74.143 17.1507 74.2603C17.0227 74.3776 16.8685 74.4627 16.701 74.5083C16.5526 74.5488 16.3974 74.5574 16.2454 74.5336C16.0935 74.5097 15.9483 74.454 15.8195 74.3701Z" fill="#2F2E41"/>
<path d="M15.8195 74.3701L15.7249 74.3085L15.6131 74.2935L12.7278 73.9056C12.2329 73.5531 11.8757 73.0378 11.72 72.4481C11.5981 71.9859 11.6064 71.5025 11.7391 71.0498C12.2667 71.2807 12.7928 71.3856 13.3127 71.3435C13.8135 71.3029 14.2779 71.1283 14.7048 70.8413C15.0576 71.3194 15.472 71.6 15.8804 71.8418C15.9618 71.89 16.0417 71.9361 16.1205 71.9816C16.5476 72.2282 16.9389 72.4541 17.3337 72.8722C17.4205 73.0087 17.476 73.1629 17.4958 73.3237C17.517 73.496 17.4968 73.6709 17.4368 73.8338C17.3767 73.9968 17.2786 74.143 17.1507 74.2603C17.0227 74.3776 16.8685 74.4627 16.701 74.5083C16.5526 74.5488 16.3974 74.5574 16.2454 74.5336C16.0935 74.5097 15.9483 74.454 15.8195 74.3701Z" stroke="black"/>
<path d="M15.8195 74.3701L15.7249 74.3085L15.6131 74.2935L12.7278 73.9056C12.2329 73.5531 11.8757 73.0378 11.72 72.4481C11.5981 71.9859 11.6064 71.5025 11.7391 71.0498C12.2667 71.2807 12.7928 71.3856 13.3127 71.3435C13.8135 71.3029 14.2779 71.1283 14.7048 70.8413C15.0576 71.3194 15.472 71.6 15.8804 71.8418C15.9618 71.89 16.0417 71.9361 16.1205 71.9816C16.5476 72.2282 16.9389 72.4541 17.3337 72.8722C17.4205 73.0087 17.476 73.1629 17.4958 73.3237C17.517 73.496 17.4968 73.6709 17.4368 73.8338C17.3767 73.9968 17.2786 74.143 17.1507 74.2603C17.0227 74.3776 16.8685 74.4627 16.701 74.5083C16.5526 74.5488 16.3974 74.5574 16.2454 74.5336C16.0935 74.5097 15.9483 74.454 15.8195 74.3701Z" stroke="black" stroke-opacity="0.2"/>
<path d="M19.3543 12.764C19.467 14.8395 19.7325 16.8146 20.2291 18.6273L16.5339 17.7405C17.1381 16.1987 17.2089 14.5425 16.9416 12.8349L19.3543 12.764Z" fill="#FFB8B8"/>
<path d="M19.3543 12.764C19.467 14.8395 19.7325 16.8146 20.2291 18.6273L16.5339 17.7405C17.1381 16.1987 17.2089 14.5425 16.9416 12.8349L19.3543 12.764Z" stroke="black"/>
<path d="M19.3543 12.764C19.467 14.8395 19.7325 16.8146 20.2291 18.6273L16.5339 17.7405C17.1381 16.1987 17.2089 14.5425 16.9416 12.8349L19.3543 12.764Z" stroke="black" stroke-opacity="0.2"/>
<path d="M13.8179 19.6508C14.3552 18.5897 15.2511 17.7561 16.3433 17.2958L20.4913 19.0322C22.2719 20.4968 23.3001 21.9886 23.7359 23.4913C24.1748 25.0048 24.0286 26.5846 23.3602 28.2437L23.3442 28.2833L23.3352 28.3251L21.9179 34.8967C21.1054 35.4212 20.377 35.6732 19.7236 35.7286C19.031 35.7874 18.3884 35.6284 17.778 35.2872C16.5635 34.6084 15.4823 33.211 14.5069 31.4042C14.7593 29.0241 14.2884 26.2346 13.4638 23.2698L13.4635 23.2687C13.1248 22.0609 13.2513 20.77 13.8179 19.6508Z" fill="#005387"/>
<path d="M13.8179 19.6508C14.3552 18.5897 15.2511 17.7561 16.3433 17.2958L20.4913 19.0322C22.2719 20.4968 23.3001 21.9886 23.7359 23.4913C24.1748 25.0048 24.0286 26.5846 23.3602 28.2437L23.3442 28.2833L23.3352 28.3251L21.9179 34.8967C21.1054 35.4212 20.377 35.6732 19.7236 35.7286C19.031 35.7874 18.3884 35.6284 17.778 35.2872C16.5635 34.6084 15.4823 33.211 14.5069 31.4042C14.7593 29.0241 14.2884 26.2346 13.4638 23.2698L13.4635 23.2687C13.1248 22.0609 13.2513 20.77 13.8179 19.6508Z" stroke="black"/>
<path d="M13.8179 19.6508C14.3552 18.5897 15.2511 17.7561 16.3433 17.2958L20.4913 19.0322C22.2719 20.4968 23.3001 21.9886 23.7359 23.4913C24.1748 25.0048 24.0286 26.5846 23.3602 28.2437L23.3442 28.2833L23.3352 28.3251L21.9179 34.8967C21.1054 35.4212 20.377 35.6732 19.7236 35.7286C19.031 35.7874 18.3884 35.6284 17.778 35.2872C16.5635 34.6084 15.4823 33.211 14.5069 31.4042C14.7593 29.0241 14.2884 26.2346 13.4638 23.2698L13.4635 23.2687C13.1248 22.0609 13.2513 20.77 13.8179 19.6508Z" stroke="black" stroke-opacity="0.2"/>
<path d="M3.66957 23.1881L10.4732 18.5205L11.0753 21.6067L7.30855 23.5842L6.5149 24.0009L7.2864 24.4573L14.4122 28.6725L15.3605 31.0116C15.4025 31.1153 15.423 31.2264 15.4206 31.3382C15.4183 31.45 15.3932 31.5602 15.3469 31.662C15.3006 31.7638 15.2341 31.8551 15.1514 31.9304C15.0686 32.0056 14.9714 32.0632 14.8657 32.0997C14.7455 32.1412 14.6173 32.1542 14.4913 32.1379C14.3652 32.1215 14.2446 32.0762 14.139 32.0055C14.0333 31.9347 13.9455 31.8405 13.8824 31.7302C13.8192 31.6198 13.7825 31.4964 13.775 31.3694L13.6727 29.6302L13.6527 29.2911L13.3302 29.1847L4.0887 26.135C3.84937 26.056 3.63116 25.9236 3.45058 25.7478C3.27 25.572 3.13179 25.3574 3.04643 25.1203L2.6609 25.2591L3.04643 25.1203C2.92199 24.7747 2.91566 24.3975 3.02842 24.0479C3.14117 23.6983 3.36665 23.3959 3.66957 23.1881Z" fill="#FFB8B8"/>
<path d="M3.66957 23.1881L10.4732 18.5205L11.0753 21.6067L7.30855 23.5842L6.5149 24.0009L7.2864 24.4573L14.4122 28.6725L15.3605 31.0116C15.4025 31.1153 15.423 31.2264 15.4206 31.3382C15.4183 31.45 15.3932 31.5602 15.3469 31.662C15.3006 31.7638 15.2341 31.8551 15.1514 31.9304C15.0686 32.0056 14.9714 32.0632 14.8657 32.0997C14.7455 32.1412 14.6173 32.1542 14.4913 32.1379C14.3652 32.1215 14.2446 32.0762 14.139 32.0055C14.0333 31.9347 13.9455 31.8405 13.8824 31.7302C13.8192 31.6198 13.7825 31.4964 13.775 31.3694L13.6727 29.6302L13.6527 29.2911L13.3302 29.1847L4.0887 26.135C3.84937 26.056 3.63116 25.9236 3.45058 25.7478C3.27 25.572 3.13179 25.3574 3.04643 25.1203L2.6609 25.2591L3.04643 25.1203C2.92199 24.7747 2.91566 24.3975 3.02842 24.0479C3.14117 23.6983 3.36665 23.3959 3.66957 23.1881Z" stroke="black"/>
<path d="M3.66957 23.1881L10.4732 18.5205L11.0753 21.6067L7.30855 23.5842L6.5149 24.0009L7.2864 24.4573L14.4122 28.6725L15.3605 31.0116C15.4025 31.1153 15.423 31.2264 15.4206 31.3382C15.4183 31.45 15.3932 31.5602 15.3469 31.662C15.3006 31.7638 15.2341 31.8551 15.1514 31.9304C15.0686 32.0056 14.9714 32.0632 14.8657 32.0997C14.7455 32.1412 14.6173 32.1542 14.4913 32.1379C14.3652 32.1215 14.2446 32.0762 14.139 32.0055C14.0333 31.9347 13.9455 31.8405 13.8824 31.7302C13.8192 31.6198 13.7825 31.4964 13.775 31.3694L13.6727 29.6302L13.6527 29.2911L13.3302 29.1847L4.0887 26.135C3.84937 26.056 3.63116 25.9236 3.45058 25.7478C3.27 25.572 3.13179 25.3574 3.04643 25.1203L2.6609 25.2591L3.04643 25.1203C2.92199 24.7747 2.91566 24.3975 3.02842 24.0479C3.14117 23.6983 3.36665 23.3959 3.66957 23.1881Z" stroke="black" stroke-opacity="0.2"/>
<path d="M15.2333 17.3932L15.2333 21.5929C14.5047 21.4212 13.8005 21.4746 13.1064 21.6313C12.4992 21.7684 11.8593 21.9971 11.2148 22.2274C11.134 22.2562 11.0531 22.2852 10.9722 22.3139L10.7207 17.8711C12.3589 17.0591 13.8557 16.8613 15.2333 17.3932Z" fill="#005387"/>
<path d="M15.2333 17.3932L15.2333 21.5929C14.5047 21.4212 13.8005 21.4746 13.1064 21.6313C12.4992 21.7684 11.8593 21.9971 11.2148 22.2274C11.134 22.2562 11.0531 22.2852 10.9722 22.3139L10.7207 17.8711C12.3589 17.0591 13.8557 16.8613 15.2333 17.3932Z" stroke="black"/>
<path d="M15.2333 17.3932L15.2333 21.5929C14.5047 21.4212 13.8005 21.4746 13.1064 21.6313C12.4992 21.7684 11.8593 21.9971 11.2148 22.2274C11.134 22.2562 11.0531 22.2852 10.9722 22.3139L10.7207 17.8711C12.3589 17.0591 13.8557 16.8613 15.2333 17.3932Z" stroke="black" stroke-opacity="0.2"/>
<path d="M20.5463 11.669C20.5463 13.1985 19.3065 14.4383 17.7771 14.4383C16.2477 14.4383 15.0078 13.1985 15.0078 11.669C15.0078 10.1396 16.2477 8.89978 17.7771 8.89978C19.3065 8.89978 20.5463 10.1396 20.5463 11.669Z" fill="#FFB8B8"/>
<path d="M20.5463 11.669C20.5463 13.1985 19.3065 14.4383 17.7771 14.4383C16.2477 14.4383 15.0078 13.1985 15.0078 11.669C15.0078 10.1396 16.2477 8.89978 17.7771 8.89978C19.3065 8.89978 20.5463 10.1396 20.5463 11.669Z" stroke="black"/>
<path d="M20.5463 11.669C20.5463 13.1985 19.3065 14.4383 17.7771 14.4383C16.2477 14.4383 15.0078 13.1985 15.0078 11.669C15.0078 10.1396 16.2477 8.89978 17.7771 8.89978C19.3065 8.89978 20.5463 10.1396 20.5463 11.669Z" stroke="black" stroke-opacity="0.2"/>
<path d="M20.9578 8.823L21.143 10.8011C18.3314 11.0034 16.2601 10.5029 14.9082 9.31695V8.823H20.9578Z" fill="#2F2E41"/>
<path d="M20.9578 8.823L21.143 10.8011C18.3314 11.0034 16.2601 10.5029 14.9082 9.31695V8.823H20.9578Z" stroke="black"/>
<path d="M20.9578 8.823L21.143 10.8011C18.3314 11.0034 16.2601 10.5029 14.9082 9.31695V8.823H20.9578Z" stroke="black" stroke-opacity="0.2"/>
</svg>
