<svg width="33" height="26" viewBox="0 0 33 26" fill="none" xmlns="http://www.w3.org/2000/svg">
<path d="M31.2321 5.2554L26.5179 7.97727V2.36364C26.5179 1.05994 25.4608 0 24.1607 0H2.35714C1.05703 0 0 1.05994 0 2.36364V23.6364C0 24.9401 1.05703 26 2.35714 26H24.1607C25.4608 26 26.5179 24.9401 26.5179 23.6364V18.0227L31.2321 20.7446C32.0166 21.1989 33 20.6301 33 19.7253V6.27841C33 5.36989 32.0166 4.80114 31.2321 5.2554ZM23.8661 23.3409H2.65179V2.65909H23.8661V23.3409ZM30.3482 17.1733L26.5179 14.9648V11.0389L30.3482 8.8267V17.1733ZM5.30357 7.38636H9.42857C9.59062 7.38636 9.72321 7.25341 9.72321 7.09091V5.31818C9.72321 5.15568 9.59062 5.02273 9.42857 5.02273H5.30357C5.14152 5.02273 5.00893 5.15568 5.00893 5.31818V7.09091C5.00893 7.25341 5.14152 7.38636 5.30357 7.38636Z" fill="white"/>
</svg>
